<?xml version="1.0" encoding="utf-8"?>
<!-- Generator: Adobe Illustrator 25.1.0, SVG Export Plug-In . SVG Version: 6.00 Build 0)  -->
<svg version="1.1" id="Layer_1" xmlns="http://www.w3.org/2000/svg" xmlns:xlink="http://www.w3.org/1999/xlink" x="0px" y="0px"
	 viewBox="0 0 763.5 368.2" style="enable-background:new 0 0 763.5 368.2;" xml:space="preserve">
<style type="text/css">
	.st0{fill:#FFFFFF;}
</style>
<g>
	<path class="st0" d="M126.2,114.4v89.4c0,4.4-3.6,8.1-8.1,8.1H63.9c-4.5,0-8-3.6-8-8.1v-89.4c0-4.4,3.6-8.1,8-8.1h54.3
		C122.6,106.4,126.2,110,126.2,114.4z"/>
	<g>
		<path class="st0" d="M749.1,64.6V279l-328.9,45.2c-4.7,0.6-8.2,4.7-8.2,9.4v9.5c0,2-1.6,3.5-3.5,3.5H298.3c-2,0-3.5-1.6-3.5-3.5
			v-8.7c0-4.8-3.6-8.9-8.4-9.4L18.8,293.7c-2.5-0.3-4.3-2.4-4.3-4.9v-42c0-2.7,2.2-4.9,4.9-4.9H147c2.7,0,4.9-2.2,4.9-4.9V100.6
			c0-7.8,6.4-14.2,14.2-14.2h75.3c7.8,0,14.2,6.3,14.2,14.2v131.5c0,2.7,2.2,4.9,4.9,4.9H711c2.7,0,4.9-2.2,4.9-4.9V64.6
			c0-2.7,2.2-4.9,4.9-4.9h23.5C746.9,59.7,749.1,61.9,749.1,64.6z"/>
		<path class="st0" d="M704.4,31v150.8c0,5.2-4.2,9.4-9.4,9.4H259.1V159h400.9c5.2,0,9.4-4.2,9.4-9.4V67c0-5.2-4.2-9.4-9.4-9.4H53.8
			c-5.2,0-9.4,4.2-9.4,9.4v82.6c0,5.2-0.2,9.4,5,9.4h2v32.2H23.8c-5.2,0-9.4-4.2-9.4-9.4V31c0-5.2,4.2-9.4,9.4-9.4H695
			C700.2,21.5,704.4,25.8,704.4,31z"/>
		<rect x="129.5" y="159" class="st0" width="19.3" height="32.2"/>
	</g>
</g>
</svg>
