<?xml version="1.0" encoding="utf-8"?>
<!-- Generator: Adobe Illustrator 25.1.0, SVG Export Plug-In . SVG Version: 6.00 Build 0)  -->
<svg version="1.1" id="Layer_1" xmlns="http://www.w3.org/2000/svg" xmlns:xlink="http://www.w3.org/1999/xlink" x="0px" y="0px"
	 viewBox="0 0 763.55 368.18" style="enable-background:new 0 0 763.55 368.18;" xml:space="preserve">
<style type="text/css">
	.st0{fill:none;stroke:#000000;stroke-width:3;stroke-miterlimit:10;}
	.st1{fill:#FFFFFF;}
</style>
<g>
	<path class="st0" d="M748.6,71.77v214.36l-328.9,45.24c-4.7,0.64-8.19,4.65-8.19,9.39v9.46c0,1.96-1.59,3.55-3.55,3.55H297.78
		c-1.96,0-3.54-1.59-3.54-3.55v-8.74c0-4.81-3.61-8.86-8.38-9.42L18.21,300.82c-2.47-0.29-4.34-2.38-4.34-4.88v-41.99
		c0-2.71,2.2-4.91,4.91-4.91h127.64c2.71,0,4.91-2.2,4.91-4.91V107.77c0-7.83,6.35-14.18,14.18-14.18h75.27
		c7.83,0,14.18,6.35,14.18,14.18v131.45c0,2.71,2.2,4.91,4.91,4.91h450.55c2.71,0,4.91-2.2,4.91-4.91V71.77
		c0-2.71,2.19-4.91,4.91-4.91h23.45C746.4,66.86,748.6,69.06,748.6,71.77z"/>
	<path class="st0" d="M668.97,74.09v82.64c0,5.19-4.22,9.41-9.42,9.41H254.96v-58.37c0-7.83-6.35-14.18-14.18-14.18h-75.27
		c-7.83,0-14.18,6.35-14.18,14.18v58.37h-25.64v-44.59c0-4.45-3.6-8.05-8.05-8.05H63.37c-4.44,0-8.05,3.6-8.05,8.05v44.59h-2.03
		c-5.2,0-9.42-4.22-9.42-9.41V74.09c0-5.2,4.22-9.41,9.42-9.41h606.26C664.75,64.68,668.97,68.89,668.97,74.09z"/>
	<path class="st0" d="M703.87,38.09v150.82c0,5.2-4.21,9.41-9.4,9.41H254.96v-90.55c0-7.83-6.35-14.18-14.18-14.18h-75.27
		c-7.83,0-14.18,6.35-14.18,14.18v90.55h-25.64v-76.77c0-4.45-3.6-8.05-8.05-8.05H63.37c-4.44,0-8.05,3.6-8.05,8.05v76.77H23.29
		c-5.2,0-9.42-4.21-9.42-9.41V38.09c0-5.2,4.22-9.41,9.42-9.41h671.18C699.66,28.68,703.87,32.89,703.87,38.09z"/>
	<path class="st0" d="M125.7,121.55V211c0,4.44-3.61,8.05-8.05,8.05H63.38c-4.45,0-8.05-3.61-8.05-8.05v-89.45
		c0-4.45,3.6-8.05,8.05-8.05h54.27C122.09,113.5,125.7,117.1,125.7,121.55z"/>
	<g>
		<line class="st0" x1="65.56" y1="41.73" x2="65.56" y2="55.23"/>
		<line class="st0" x1="73.33" y1="41.73" x2="73.33" y2="55.23"/>
		<line class="st0" x1="81.1" y1="41.73" x2="81.1" y2="55.23"/>
		<line class="st0" x1="88.88" y1="41.73" x2="88.88" y2="55.23"/>
		<line class="st0" x1="96.65" y1="41.73" x2="96.65" y2="55.23"/>
		<line class="st0" x1="104.42" y1="41.73" x2="104.42" y2="55.23"/>
		<line class="st0" x1="112.19" y1="41.73" x2="112.19" y2="55.23"/>
		<line class="st0" x1="119.97" y1="41.73" x2="119.97" y2="55.23"/>
		<line class="st0" x1="127.74" y1="41.73" x2="127.74" y2="55.23"/>
		<line class="st0" x1="135.51" y1="41.73" x2="135.51" y2="55.23"/>
		<line class="st0" x1="143.28" y1="41.73" x2="143.28" y2="55.23"/>
		<line class="st0" x1="151.06" y1="41.73" x2="151.06" y2="55.23"/>
		<line class="st0" x1="158.83" y1="41.73" x2="158.83" y2="55.23"/>
		<line class="st0" x1="166.6" y1="41.73" x2="166.6" y2="55.23"/>
		<line class="st0" x1="174.38" y1="41.73" x2="174.38" y2="55.23"/>
		<line class="st0" x1="182.15" y1="41.73" x2="182.15" y2="55.23"/>
		<line class="st0" x1="252.1" y1="41.73" x2="252.1" y2="55.23"/>
		<line class="st0" x1="259.88" y1="41.73" x2="259.88" y2="55.23"/>
		<line class="st0" x1="267.65" y1="41.73" x2="267.65" y2="55.23"/>
		<line class="st0" x1="275.42" y1="41.73" x2="275.42" y2="55.23"/>
		<line class="st0" x1="283.19" y1="41.73" x2="283.19" y2="55.23"/>
		<line class="st0" x1="290.97" y1="41.73" x2="290.97" y2="55.23"/>
		<line class="st0" x1="298.74" y1="41.73" x2="298.74" y2="55.23"/>
		<line class="st0" x1="306.51" y1="41.73" x2="306.51" y2="55.23"/>
		<line class="st0" x1="314.28" y1="41.73" x2="314.28" y2="55.23"/>
		<line class="st0" x1="322.06" y1="41.73" x2="322.06" y2="55.23"/>
		<line class="st0" x1="329.83" y1="41.73" x2="329.83" y2="55.23"/>
		<line class="st0" x1="337.6" y1="41.73" x2="337.6" y2="55.23"/>
		<line class="st0" x1="345.38" y1="41.73" x2="345.38" y2="55.23"/>
		<line class="st0" x1="353.15" y1="41.73" x2="353.15" y2="55.23"/>
		<line class="st0" x1="360.92" y1="41.73" x2="360.92" y2="55.23"/>
		<line class="st0" x1="368.69" y1="41.73" x2="368.69" y2="55.23"/>
		<line class="st0" x1="376.47" y1="41.73" x2="376.47" y2="55.23"/>
		<line class="st0" x1="384.24" y1="41.73" x2="384.24" y2="55.23"/>
		<line class="st0" x1="392.01" y1="41.73" x2="392.01" y2="55.23"/>
		<line class="st0" x1="399.78" y1="41.73" x2="399.78" y2="55.23"/>
		<line class="st0" x1="407.56" y1="41.73" x2="407.56" y2="55.23"/>
		<line class="st0" x1="415.33" y1="41.73" x2="415.33" y2="55.23"/>
		<line class="st0" x1="423.1" y1="41.73" x2="423.1" y2="55.23"/>
		<line class="st0" x1="430.88" y1="41.73" x2="430.88" y2="55.23"/>
		<line class="st0" x1="438.65" y1="41.73" x2="438.65" y2="55.23"/>
		<line class="st0" x1="446.42" y1="41.73" x2="446.42" y2="55.23"/>
		<line class="st0" x1="454.19" y1="41.73" x2="454.19" y2="55.23"/>
		<line class="st0" x1="461.97" y1="41.73" x2="461.97" y2="55.23"/>
		<line class="st0" x1="469.74" y1="41.73" x2="469.74" y2="55.23"/>
		<line class="st0" x1="477.51" y1="41.73" x2="477.51" y2="55.23"/>
		<line class="st0" x1="485.28" y1="41.73" x2="485.28" y2="55.23"/>
		<line class="st0" x1="493.06" y1="41.73" x2="493.06" y2="55.23"/>
		<line class="st0" x1="500.83" y1="41.73" x2="500.83" y2="55.23"/>
		<line class="st0" x1="508.6" y1="41.73" x2="508.6" y2="55.23"/>
		<line class="st0" x1="516.38" y1="41.73" x2="516.38" y2="55.23"/>
		<line class="st0" x1="524.15" y1="41.73" x2="524.15" y2="55.23"/>
		<line class="st0" x1="531.92" y1="41.73" x2="531.92" y2="55.23"/>
		<line class="st0" x1="539.69" y1="41.73" x2="539.69" y2="55.23"/>
		<line class="st0" x1="547.47" y1="41.73" x2="547.47" y2="55.23"/>
		<line class="st0" x1="555.24" y1="41.73" x2="555.24" y2="55.23"/>
		<line class="st0" x1="563.01" y1="41.73" x2="563.01" y2="55.23"/>
		<line class="st0" x1="570.78" y1="41.73" x2="570.78" y2="55.23"/>
		<line class="st0" x1="578.56" y1="41.73" x2="578.56" y2="55.23"/>
		<line class="st0" x1="586.33" y1="41.73" x2="586.33" y2="55.23"/>
		<line class="st0" x1="594.1" y1="41.73" x2="594.1" y2="55.23"/>
		<line class="st0" x1="601.88" y1="41.73" x2="601.88" y2="55.23"/>
		<line class="st0" x1="609.65" y1="41.73" x2="609.65" y2="55.23"/>
		<line class="st0" x1="617.42" y1="41.73" x2="617.42" y2="55.23"/>
		<line class="st0" x1="625.19" y1="41.73" x2="625.19" y2="55.23"/>
		<line class="st0" x1="632.97" y1="41.73" x2="632.97" y2="55.23"/>
		<line class="st0" x1="640.74" y1="41.73" x2="640.74" y2="55.23"/>
		<line class="st0" x1="648.51" y1="41.73" x2="648.51" y2="55.23"/>
		<line class="st0" x1="656.28" y1="41.73" x2="656.28" y2="55.23"/>
		<line class="st0" x1="664.06" y1="41.73" x2="664.06" y2="55.23"/>
	</g>
	<line class="st0" x1="261.51" y1="166.27" x2="261.51" y2="198.32"/>
	<line class="st0" x1="298.74" y1="166.27" x2="298.74" y2="198.32"/>
	<line class="st0" x1="267.72" y1="175.41" x2="267.72" y2="186.86"/>
	<line class="st0" x1="273.92" y1="175.41" x2="273.92" y2="186.86"/>
	<line class="st0" x1="280.12" y1="175.41" x2="280.12" y2="186.86"/>
	<line class="st0" x1="286.33" y1="175.41" x2="286.33" y2="186.86"/>
	<line class="st0" x1="292.53" y1="175.41" x2="292.53" y2="186.86"/>
	<line class="st0" x1="298.74" y1="166.27" x2="298.74" y2="198.32"/>
	<line class="st0" x1="335.97" y1="166.27" x2="335.97" y2="198.32"/>
	<line class="st0" x1="304.94" y1="175.41" x2="304.94" y2="186.86"/>
	<line class="st0" x1="311.15" y1="175.41" x2="311.15" y2="186.86"/>
	<line class="st0" x1="317.35" y1="175.41" x2="317.35" y2="186.86"/>
	<line class="st0" x1="323.56" y1="175.41" x2="323.56" y2="186.86"/>
	<line class="st0" x1="329.76" y1="175.41" x2="329.76" y2="186.86"/>
	<line class="st0" x1="335.97" y1="166.27" x2="335.97" y2="198.32"/>
	<line class="st0" x1="373.19" y1="166.27" x2="373.19" y2="198.32"/>
	<line class="st0" x1="342.17" y1="175.41" x2="342.17" y2="186.86"/>
	<line class="st0" x1="348.38" y1="175.41" x2="348.38" y2="186.86"/>
	<line class="st0" x1="354.58" y1="175.41" x2="354.58" y2="186.86"/>
	<line class="st0" x1="360.78" y1="175.41" x2="360.78" y2="186.86"/>
	<line class="st0" x1="366.99" y1="175.41" x2="366.99" y2="186.86"/>
	<line class="st0" x1="373.19" y1="166.27" x2="373.19" y2="198.32"/>
	<line class="st0" x1="410.42" y1="166.27" x2="410.42" y2="198.32"/>
	<line class="st0" x1="379.4" y1="175.41" x2="379.4" y2="186.86"/>
	<line class="st0" x1="385.6" y1="175.41" x2="385.6" y2="186.86"/>
	<line class="st0" x1="391.81" y1="175.41" x2="391.81" y2="186.86"/>
	<line class="st0" x1="398.01" y1="175.41" x2="398.01" y2="186.86"/>
	<line class="st0" x1="404.22" y1="175.41" x2="404.22" y2="186.86"/>
	<line class="st0" x1="410.42" y1="166.27" x2="410.42" y2="198.32"/>
	<line class="st0" x1="447.65" y1="166.27" x2="447.65" y2="198.32"/>
	<line class="st0" x1="416.62" y1="175.41" x2="416.62" y2="186.86"/>
	<line class="st0" x1="422.83" y1="175.41" x2="422.83" y2="186.86"/>
	<line class="st0" x1="429.03" y1="175.41" x2="429.03" y2="186.86"/>
	<line class="st0" x1="435.24" y1="175.41" x2="435.24" y2="186.86"/>
	<line class="st0" x1="441.44" y1="175.41" x2="441.44" y2="186.86"/>
	<line class="st0" x1="447.65" y1="166.27" x2="447.65" y2="198.32"/>
	<line class="st0" x1="484.88" y1="166.27" x2="484.88" y2="198.32"/>
	<line class="st0" x1="453.85" y1="175.41" x2="453.85" y2="186.86"/>
	<line class="st0" x1="460.06" y1="175.41" x2="460.06" y2="186.86"/>
	<line class="st0" x1="466.26" y1="175.41" x2="466.26" y2="186.86"/>
	<line class="st0" x1="472.47" y1="175.41" x2="472.47" y2="186.86"/>
	<line class="st0" x1="478.67" y1="175.41" x2="478.67" y2="186.86"/>
	<line class="st0" x1="484.88" y1="166.27" x2="484.88" y2="198.32"/>
	<line class="st0" x1="522.1" y1="166.27" x2="522.1" y2="198.32"/>
	<line class="st0" x1="491.08" y1="175.41" x2="491.08" y2="186.86"/>
	<line class="st0" x1="497.28" y1="175.41" x2="497.28" y2="186.86"/>
	<line class="st0" x1="503.49" y1="175.41" x2="503.49" y2="186.86"/>
	<line class="st0" x1="509.69" y1="175.41" x2="509.69" y2="186.86"/>
	<line class="st0" x1="515.9" y1="175.41" x2="515.9" y2="186.86"/>
	<line class="st0" x1="522.1" y1="166.27" x2="522.1" y2="198.32"/>
	<line class="st0" x1="559.33" y1="166.27" x2="559.33" y2="198.32"/>
	<line class="st0" x1="528.31" y1="175.41" x2="528.31" y2="186.86"/>
	<line class="st0" x1="534.51" y1="175.41" x2="534.51" y2="186.86"/>
	<line class="st0" x1="540.72" y1="175.41" x2="540.72" y2="186.86"/>
	<line class="st0" x1="546.92" y1="175.41" x2="546.92" y2="186.86"/>
	<line class="st0" x1="553.12" y1="175.41" x2="553.12" y2="186.86"/>
	<line class="st0" x1="559.33" y1="166.27" x2="559.33" y2="198.32"/>
	<line class="st0" x1="596.56" y1="166.27" x2="596.56" y2="198.32"/>
	<line class="st0" x1="565.53" y1="175.41" x2="565.53" y2="186.86"/>
	<line class="st0" x1="571.74" y1="175.41" x2="571.74" y2="186.86"/>
	<line class="st0" x1="577.94" y1="175.41" x2="577.94" y2="186.86"/>
	<line class="st0" x1="584.15" y1="175.41" x2="584.15" y2="186.86"/>
	<line class="st0" x1="590.35" y1="175.41" x2="590.35" y2="186.86"/>
	<line class="st0" x1="596.56" y1="166.27" x2="596.56" y2="198.32"/>
	<line class="st0" x1="633.78" y1="166.27" x2="633.78" y2="198.32"/>
	<line class="st0" x1="602.76" y1="175.41" x2="602.76" y2="186.86"/>
	<line class="st0" x1="608.97" y1="175.41" x2="608.97" y2="186.86"/>
	<line class="st0" x1="615.17" y1="175.41" x2="615.17" y2="186.86"/>
	<line class="st0" x1="621.38" y1="175.41" x2="621.38" y2="186.86"/>
	<line class="st0" x1="627.58" y1="175.41" x2="627.58" y2="186.86"/>
	<g>
		<g>
			<path class="st1" d="M337.98,218.11c-3.08,0-5.59-2.51-5.59-5.59v-23.07h42.41c4.22,0,6.1-1.8,6.1-5.84v-28.36
				c0-4.7-2.28-7.5-6.1-7.5h-42.41v-4.82c0-5.64,4.59-10.23,10.23-10.23h47.18c3.08,0,5.59,2.51,5.59,5.59v74.23
				c0,3.08-2.51,5.59-5.59,5.59H337.98z"/>
			<path d="M389.8,134.2c2.26,0,4.09,1.84,4.09,4.09v74.23c0,2.26-1.84,4.09-4.09,4.09h-51.82c-2.26,0-4.09-1.84-4.09-4.09v-21.57
				h40.91c5.04,0,7.6-2.47,7.6-7.34v-28.36c0-5.47-2.98-9-7.6-9h-40.91v-3.32c0-4.81,3.92-8.73,8.73-8.73H389.8 M389.8,131.2h-47.18
				c-6.48,0-11.73,5.25-11.73,11.73v6.32h43.91c3.31,0,4.6,2.69,4.6,6v28.36c0,3.31-1.29,4.34-4.6,4.34h-43.91v24.57
				c0,3.92,3.17,7.09,7.09,7.09h51.82c3.92,0,7.09-3.17,7.09-7.09V138.3C396.89,134.38,393.71,131.2,389.8,131.2L389.8,131.2z"/>
		</g>
		<g>
			<path class="st1" d="M332.39,192.41v-6.07c0-1.58,1.28-2.86,2.86-2.86h30.43c1.8,0,3.26-1.46,3.26-3.26v-17.95
				c0-1.69-1.38-3.07-3.07-3.07h-22.87c-0.88,0-1.71,0.42-2.24,1.12l-4.98,6.68l-3.38-3.38v-19.24l46.19-0.02
				c2.1,0,3.82,1.71,3.82,3.82v40.41c0,2.11-1.71,3.82-3.82,3.82H332.39z"/>
			<path d="M378.58,145.86L378.58,145.86c1.28,0,2.32,1.04,2.32,2.32v40.41c0,1.28-1.04,2.32-2.32,2.32h-44.69v-4.57
				c0-0.75,0.61-1.36,1.36-1.36h30.43c2.62,0,4.76-2.13,4.76-4.76v-17.95c0-2.52-2.05-4.57-4.57-4.57h-22.87
				c-1.35,0-2.64,0.65-3.44,1.73l-3.95,5.29l-1.71-1.71v-17.12L378.58,145.86 M378.58,142.86l-47.69,0.02v20.83
				c0,0.34,0.14,0.67,0.38,0.92l3.61,3.61c0.25,0.25,0.59,0.38,0.91,0.38c0.39,0,0.78-0.18,1.04-0.52l5.13-6.87
				c0.24-0.33,0.63-0.52,1.04-0.52h22.87c0.87,0,1.57,0.7,1.57,1.57v17.95c0,0.97-0.79,1.76-1.76,1.76h-30.43
				c-2.41,0-4.36,1.95-4.36,4.36v7.57h47.69c2.94,0,5.32-2.38,5.32-5.32v-40.41C383.9,145.24,381.52,142.86,378.58,142.86
				L378.58,142.86z"/>
		</g>
	</g>
	<g>
		<g>
			<path class="st1" d="M194.91,81.5c-2.23,0-4.04-1.81-4.04-4.04V59.77h32.79c2.19,0,5.09-0.51,5.09-4.89V32.73
				c0-3.82-1.95-6.19-5.09-6.19h-32.79v-3.43c0-4.22,3.44-7.66,7.66-7.66h36.85c2.23,0,4.04,1.81,4.04,4.04v57.97
				c0,2.23-1.81,4.04-4.04,4.04H194.91z"/>
			<path d="M235.38,16.95c1.4,0,2.54,1.14,2.54,2.54v57.97c0,1.4-1.14,2.54-2.54,2.54h-40.47c-1.4,0-2.54-1.14-2.54-2.54V61.27
				h31.29c5.45,0,6.59-3.48,6.59-6.39V32.73c0-4.67-2.59-7.69-6.59-7.69h-31.29v-1.93c0-3.4,2.76-6.16,6.16-6.16H235.38
				 M235.38,13.95h-36.85c-5.06,0-9.16,4.1-9.16,9.16v4.93h34.29c2.59,0,3.59,2.1,3.59,4.69v22.15c0,2.59-1.01,3.39-3.59,3.39
				h-34.29v19.19c0,3.06,2.48,5.54,5.54,5.54h40.47c3.06,0,5.54-2.48,5.54-5.54V19.49C240.92,16.43,238.44,13.95,235.38,13.95
				L235.38,13.95z"/>
		</g>
		<g>
			<path class="st1" d="M190.88,62.69v-5.67c0-1.05,0.86-1.91,1.91-1.91h23.76c1.58,0,2.87-1.29,2.87-2.87V38.22
				c0-1.5-1.22-2.73-2.72-2.73h-17.86c-0.79,0-1.54,0.38-2.01,1.01l-3.67,4.91l-2.28-2.27V26.05l36.01-0.02
				c1.46,0,2.65,1.19,2.65,2.65v31.35c0,1.46-1.19,2.65-2.65,2.65H190.88z"/>
			<path d="M226.88,27.53L226.88,27.53c0.63,0,1.15,0.52,1.15,1.15v31.35c0,0.64-0.52,1.15-1.15,1.15h-34.51v-4.17
				c0-0.22,0.18-0.41,0.41-0.41h23.76c2.41,0,4.37-1.96,4.37-4.37V38.22c0-2.33-1.9-4.22-4.22-4.22h-17.86
				c-1.26,0-2.46,0.6-3.21,1.61l-2.63,3.52l-0.61-0.61V27.55L226.88,27.53 M226.88,24.53l-37.51,0.02v14.79
				c0,0.27,0.11,0.53,0.3,0.71l2.82,2.82c0.2,0.2,0.46,0.3,0.71,0.3c0.31,0,0.61-0.14,0.81-0.41l4-5.37
				c0.19-0.26,0.49-0.41,0.81-0.41h17.86c0.68,0,1.22,0.55,1.22,1.22v14.02c0,0.76-0.61,1.37-1.37,1.37h-23.76
				c-1.88,0-3.41,1.53-3.41,3.41v7.17h37.51c2.29,0,4.15-1.86,4.15-4.15V28.68C231.03,26.39,229.17,24.53,226.88,24.53L226.88,24.53
				z"/>
		</g>
	</g>
</g>
</svg>
