<?xml version="1.0" encoding="utf-8"?>
<!-- Generator: Adobe Illustrator 25.2.1, SVG Export Plug-In . SVG Version: 6.00 Build 0)  -->
<svg version="1.1" id="Capa_1" xmlns="http://www.w3.org/2000/svg" xmlns:xlink="http://www.w3.org/1999/xlink" x="0px" y="0px"
	 viewBox="0 0 512 389.3" style="enable-background:new 0 0 512 389.3;" xml:space="preserve">
<g>
	<path d="M302.2,208.7c0-9.3,0-18,0-27.8c9.4,0,18.6,0,28.7,0c0,8.6,0,17.5,0,27.8C322.1,208.7,312.8,208.7,302.2,208.7z"/>
	<path d="M302.5,268.9c0-10,0-18.9,0-28.5c9.6,0,18.5,0,28.4,0c0,9.3,0,18.5,0,28.5C321.5,268.9,312,268.9,302.5,268.9z"/>
	<g>
		<rect x="425" y="180.7" width="27.4" height="27.4"/>
	</g>
	<g>
		<rect x="363.6" y="180.7" width="27.4" height="27.4"/>
	</g>
	<g>
		<rect x="425" y="241" width="27.4" height="27.4"/>
	</g>
	<g>
		<rect x="363.6" y="241" width="27.4" height="27.4"/>
	</g>
	<path d="M59.6,181.3v87.7h212.1v-87.7H59.6z M241.7,240.8H89.7v-31.4h152.1V240.8z"/>
	<path d="M441,119.4H422V89h21.4c17.7-1.9,33.4-8.5,46.6-22c18.4-18.7,24.3-41.3,21.2-67.1H0.7c-2.4,20.9,0.9,39.7,12.4,56.4
		C27.3,76.9,46.5,86.5,69,89h21v30.4H70.6l-37.2,19l-33,15.8v175.2h28.2v61.2h122.1v-61.2h210v61.2h122.1v-61.2h28.7V154.2
		l-23.4-10.6L441,119.4z M34.1,30h444.6c-5.9,14.4-15.3,23.2-29.1,27.1c-5.4,1.5-11.3,1.9-16.9,1.9c-118,0.1-235.9,0.1-353.9,0
		C56.1,59.1,41.9,50,34.1,30z M392.3,89v29.2H119.7V89H392.3z M119.4,341.8c0,0.9,0,1.8,0,2.8v15.6H89.7c-4.5,0-9,0-13.5,0H60v0
		c0,0,0,0-0.1,0c0-10.4,0-19,0-28.7c0,0,0,0,0.1,0v-0.1h59.4V341.8z M451.5,360.2h-59.4v-28.8h59.4V360.2z M30.1,172.9l16.1-7.7
		l0.3-0.2l0.3-0.2l30.8-15.7h356.1l40.8,20.9l0.7,0.3l0.7,0.3l5.9,2.7v126.3H30.1V172.9z"/>
</g>
</svg>
