<?xml version="1.0" encoding="utf-8"?>
<!-- Generator: Adobe Illustrator 25.2.3, SVG Export Plug-In . SVG Version: 6.00 Build 0)  -->
<svg version="1.1" id="Layer_1" xmlns="http://www.w3.org/2000/svg" xmlns:xlink="http://www.w3.org/1999/xlink" x="0px" y="0px"
	 viewBox="0 0 472 328.2" style="enable-background:new 0 0 472 328.2;" xml:space="preserve">
<path d="M472,254.8v-52.2c0-9.1-4-17-11-21.6V9.5C461,4,456.1,0,450.6,0H131.3C125.8,0,121,4,121,9.5V71H98
	c-9.5-0.1-18.3,5.2-22.6,13.7L45.3,143l-30.1,13C5.9,160-0.1,169.2,0,179.4V255c-0.2,13.7,10.8,25,24.5,25.1c0.2,0,0.4,0,0.6,0h12.8
	c1.8,28.3,26.3,49.8,54.6,48c25.8-1.7,46.3-22.2,48-48h186.2c1.8,28.3,26.3,49.8,54.6,48c25.8-1.7,46.3-22.2,48-48H447
	c13.7,0.1,24.9-10.9,25-24.6C472,255.2,472,255,472,254.8z M89.1,308.4c-17.3,0-31.4-14.1-31.4-31.4c0-1.7,0.1-3.4,0.4-5.2
	c2.9-17.1,19.1-28.7,36.2-25.8c13.2,2.2,23.6,12.6,25.8,25.8c0.3,1.7,0.4,3.4,0.4,5.2C120.5,294.4,106.5,308.4,89.1,308.4z M151,260
	h-13.2c-9.2-26.9-38.5-41.2-65.4-32c-15,5.2-26.8,16.9-32,32H25c-2.7,0.1-4.9-1.9-5-4.6c0-0.2,0-0.4,0-0.6v-75.6
	c-0.1-2.1,1.2-4.1,3.1-4.9L54.6,161H151V260z M151,141H68.9l24.2-47c0.9-1.8,2.8-3,4.8-3h47.7c2.8-0.1,5.2,2.1,5.3,5
	c0,0.1,0,0.2,0,0.2L151,141L151,141z M146,71c-0.1,0-0.2,0-0.3,0H141V20h300v157H171V96.2C171.1,82.3,159.9,71,146,71z M377.9,308.4
	c-17.3,0-31.4-14.1-31.4-31.4c0-1.7,0.1-3.4,0.4-5.2c2.5-15.2,15.6-26.3,31-26.3c15.5,0.1,28.6,11.3,31.1,26.6
	c0.2,1.6,0.4,3.2,0.4,4.8C409.3,294.4,395.2,308.4,377.9,308.4z M452,254.8c0.2,2.6-1.8,4.9-4.5,5.1c-0.2,0-0.4,0-0.6,0h-20.4
	c-9.2-26.9-38.5-41.2-65.4-32c-15,5.2-26.8,16.9-32,32H171v-63h276c3,0,5,2.7,5,5.7V254.8z"/>
</svg>
