<?xml version="1.0" encoding="iso-8859-1"?>
<!-- Generator: Adobe Illustrator 19.0.0, SVG Export Plug-In . SVG Version: 6.00 Build 0)  -->
<svg xmlns="http://www.w3.org/2000/svg" xmlns:xlink="http://www.w3.org/1999/xlink" version="1.1" id="Layer_1" x="0px" y="0px" viewBox="0 0 512 512" style="enable-background:new 0 0 512 512;" xml:space="preserve" width="512" height="512">
<g>
	<path d="M331,332h75v30H301v-45.041c18.204-13.697,30-35.475,30-59.959c0-10.778-2.303-21.024-6.415-30.295l70.122-190.793   C387.973,33.364,335.3,0,256,0c-79.63,0-131.562,33.209-138.707,35.911l70.122,190.793C183.303,235.976,181,246.222,181,257   c0,24.484,11.796,46.262,30,59.959V362H106v-30h75v-30H0v30h76v30H0v150h512V362h-76v-30h76v-30H331V332z M256,302   c-24.813,0-45-20.187-45-45s20.187-45,45-45s45,20.187,45,45S280.813,302,256,302z M256,152c20.53,0,40.642,6.117,57.7,17.356   l-10.741,29.226C290.096,188.221,273.764,182,256,182s-34.096,6.221-46.959,16.582L198.3,169.356   C215.358,158.117,235.47,152,256,152z M357.168,51.084l-32.897,89.51c-17.896-10.498-38.07-16.785-58.831-18.254l-26.024-52.048   l-26.833,13.416l20.164,40.328c-15.853,2.79-31.122,8.406-45.019,16.558l-32.897-89.51   C219.069,23.166,292.93,23.165,357.168,51.084z M241,330.491c4.848,0.988,9.864,1.509,15,1.509s10.152-0.521,15-1.509V362h-30   V330.491z M100.271,482l15-30h281.459l15,30H100.271z M482,482h-36.729l-30-60H96.729l-30,60H30v-90h452V482z"/>
	<rect x="241" y="242" width="30" height="30"/>
</g>















</svg>
