<svg height="682.66669pt" viewBox="-21 -21 682.66669 682.66669" width="682.66669pt" xmlns="http://www.w3.org/2000/svg"><path d="m546.273438 93.726562c-60.4375-60.441406-140.800782-93.726562-226.273438-93.726562s-165.835938 33.285156-226.273438 93.726562c-60.441406 60.4375-93.726562 140.800782-93.726562 226.273438s33.285156 165.835938 93.726562 226.273438c60.4375 60.441406 140.800782 93.726562 226.273438 93.726562s165.835938-33.285156 226.273438-93.726562c60.441406-60.4375 93.726562-140.800782 93.726562-226.273438s-33.285156-165.835938-93.726562-226.273438zm-216.859376-27.652343c63.273438 2.316406 120.703126 27.871093 164.007813 68.371093l-164.007813 164.007813zm-18.828124 25.914062c-3.585938-1.652343-7.5625-2.574219-11.761719-2.574219-15.574219 0-28.238281 12.660157-28.238281 28.234376 0 15.570312 12.664062 28.234374 28.238281 28.234374 4.199219 0 8.175781-.925781 11.761719-2.578124v155.148437l-164.007813-164.007813c43.304687-40.5 100.734375-66.054687 164.007813-68.371093zm-2.347657 25.660157c0 5.1875-4.222656 9.414062-9.414062 9.414062-5.191407 0-9.410157-4.226562-9.410157-9.414062 0-5.191407 4.21875-9.410157 9.410157-9.410157 5.191406 0 9.414062 4.21875 9.414062 9.410157zm-10.957031 194.117187h-231.25c2.019531-63.140625 27.1875-120.539063 67.28125-163.96875zm-172.574219 29.410156c0 5.191407-4.222656 9.410157-9.414062 9.410157-5.191407 0-9.410157-4.21875-9.410157-9.410157 0-5.191406 4.21875-9.414062 9.410157-9.414062 5.191406 0 9.414062 4.222656 9.414062 9.414062zm-35.582031-10.585937c-1.328125 3.273437-2.0625 6.839844-2.0625 10.585937 0 15.574219 12.664062 28.238281 28.230469 28.238281 15.570312 0 28.238281-12.664062 28.238281-28.238281 0-3.738281-.742188-7.3125-2.070312-10.585937h155.8125l-37.398438 37.402344c-3.609375-11.4375-14.320312-19.753907-26.9375-19.753907-15.5625 0-28.230469 12.664063-28.230469 28.230469 0 12.617188 8.316407 23.328125 19.753907 26.933594l-90.015626 90.019531c-40.25-43.035156-65.738281-100.023437-68.328124-162.832031zm134.40625 45.878906c0-5.1875 4.21875-9.40625 9.40625-9.40625 5.191406 0 9.414062 4.21875 9.414062 9.40625 0 5.191406-4.222656 9.414062-9.414062 9.414062-5.1875 0-9.40625-4.222656-9.40625-9.414062zm87.054688-32.570312v230.027343c-62.675782-2.292969-119.628907-27.394531-162.792969-67.238281zm18.828124 0 78.980469 78.984374c-13.066406 4.375-22.511719 16.71875-22.511719 31.234376 0 18.164062 14.777344 32.945312 32.941407 32.945312 14.515625 0 26.863281-9.449219 31.238281-22.511719l42.144531 42.136719c-43.164062 39.84375-100.117187 64.945312-162.792969 67.238281zm103.523438 110.21875c0 7.78125-6.332031 14.121093-14.113281 14.121093-7.785157 0-14.117188-6.339843-14.117188-14.121093 0-7.785157 6.332031-14.117188 14.117188-14.117188 7.78125 0 14.113281 6.332031 14.113281 14.117188zm-90.21875-123.527344h231.164062c-2.589843 62.808594-28.078124 119.796875-68.328124 162.832031zm214.929688-95.296875c0 7.785156-6.335938 14.121093-14.117188 14.121093-7.785156 0-14.117188-6.335937-14.117188-14.121093 0-7.785157 6.332032-14.117188 14.117188-14.117188 7.78125 0 14.117188 6.332031 14.117188 14.117188zm-14.117188-32.941407c-18.164062 0-32.945312 14.777344-32.945312 32.941407 0 18.164062 14.78125 32.945312 32.945312 32.945312 8.992188 0 17.152344-3.628906 23.105469-9.492187 4.238281 17.066406 6.753906 34.800781 7.332031 53.015625h-231.25l163.96875-163.96875c15.109375 16.367187 28.09375 34.710937 38.523438 54.605469-.558594-.03125-1.117188-.046876-1.679688-.046876zm-36.703125-81.3125c-48.507813-45.617187-110.890625-71.5625-177.414063-73.804687v-28.25c74.0625 2.261719 143.539063 31.136719 197.390626 82.074219zm-196.242187-73.804687c-66.523438 2.242187-128.90625 28.1875-177.414063 73.804687l-19.976563-19.980468c53.851563-50.9375 123.328126-79.8125 197.390626-82.074219zm-190.683594 87.15625c-45.175782 48.621094-70.753906 110.964844-72.710938 177.371094h-28.25c1.972656-73.949219 30.488282-143.378907 80.984375-197.347657zm-72.621094 196.199219c2.503906 66.082031 28.40625 128.019531 73.757812 176.238281l-19.976562 19.976563c-50.671875-53.566407-79.503906-122.589844-82.035156-196.214844zm87.109375 189.507812c48.335937 44.910156 110.226563 70.445313 176.195313 72.667969v28.25c-73.511719-2.242187-142.492188-30.710937-196.171876-80.941406zm195.023437 72.667969c65.96875-2.222656 127.859376-27.761719 176.195313-72.671875l19.976563 19.980469c-53.679688 50.230469-122.660157 78.699219-196.171876 80.941406zm189.546876-85.9375c45.351562-48.21875 71.253906-110.15625 73.757812-176.242187h28.253906c-2.527344 73.628906-31.363281 142.652343-82.03125 196.214843zm73.847656-195.0625c-1.957032-66.410156-27.535156-128.753906-72.710938-177.371094l19.976563-19.980469c50.496093 53.96875 79.011719 123.398438 80.984375 197.351563zm0 0"/><path d="m244.707031 472.9375c-15.570312 0-28.238281 12.667969-28.238281 28.238281 0 15.574219 12.667969 28.238281 28.238281 28.238281 15.566407 0 28.230469-12.664062 28.230469-28.238281 0-15.570312-12.664062-28.238281-28.230469-28.238281zm0 37.648438c-5.191406 0-9.414062-4.21875-9.414062-9.410157 0-5.191406 4.222656-9.414062 9.414062-9.414062 5.191407 0 9.410157 4.222656 9.410157 9.414062 0 5.191407-4.21875 9.410157-9.410157 9.410157zm0 0"/><path d="m141.175781 237.648438c15.574219 0 28.238281-12.667969 28.238281-28.234376 0-15.570312-12.664062-28.238281-28.238281-28.238281-15.570312 0-28.238281 12.667969-28.238281 28.238281 0 15.566407 12.667969 28.234376 28.238281 28.234376zm0-37.648438c5.191407 0 9.410157 4.222656 9.410157 9.414062 0 5.1875-4.21875 9.410157-9.410157 9.410157-5.191406 0-9.414062-4.222657-9.414062-9.410157 0-5.191406 4.222656-9.414062 9.414062-9.414062zm0 0"/><path d="m378.824219 162.351562c-15.574219 0-28.238281 12.667969-28.238281 28.234376 0 15.570312 12.664062 28.238281 28.238281 28.238281 15.570312 0 28.238281-12.667969 28.238281-28.238281 0-15.566407-12.667969-28.234376-28.238281-28.234376zm0 37.648438c-5.191407 0-9.410157-4.222656-9.410157-9.414062 0-5.1875 4.21875-9.410157 9.410157-9.410157 5.191406 0 9.414062 4.222657 9.414062 9.410157 0 5.191406-4.222656 9.414062-9.414062 9.414062zm0 0"/><path d="m235.292969 190.585938c0 15.570312 12.667969 28.238281 28.238281 28.238281 15.566406 0 28.230469-12.667969 28.230469-28.238281 0-15.566407-12.664063-28.234376-28.230469-28.234376-15.570312 0-28.238281 12.667969-28.238281 28.234376zm28.238281-9.410157c5.1875 0 9.40625 4.222657 9.40625 9.410157 0 5.191406-4.21875 9.414062-9.40625 9.414062-5.191406 0-9.414062-4.222656-9.414062-9.414062 0-5.1875 4.222656-9.410157 9.414062-9.410157zm0 0"/><path d="m515.292969 343.53125c-15.566407 0-28.230469 12.664062-28.230469 28.230469 0 15.574219 12.664062 28.238281 28.230469 28.238281 15.570312 0 28.238281-12.664062 28.238281-28.238281 0-15.566407-12.667969-28.230469-28.238281-28.230469zm0 37.644531c-5.191407 0-9.410157-4.222656-9.410157-9.414062 0-5.191407 4.21875-9.410157 9.410157-9.410157 5.191406 0 9.414062 4.21875 9.414062 9.410157 0 5.191406-4.222656 9.414062-9.414062 9.414062zm0 0"/><path d="m225.882812 143.53125c0-2.597656 2.109376-4.707031 4.703126-4.707031 12.976562 0 23.53125-10.558594 23.53125-23.53125v-14.117188h-18.824219v14.117188c0 2.597656-2.109375 4.707031-4.707031 4.707031-12.972657 0-23.523438 10.554688-23.523438 23.53125v14.117188h18.820312zm0 0"/><path d="m366.871094 124.953125c-.082032 6.28125 2.289062 12.226563 6.675781 16.726563 4.382813 4.5 10.257813 7.027343 16.539063 7.109374l14.117187.1875.25-18.824218-14.117187-.1875c-1.695313-.019532-2.800782-.898438-3.308594-1.417969-.507813-.523437-1.355469-1.652344-1.332032-3.347656.167969-12.972657-10.246093-23.667969-23.21875-23.835938l-14.117187-.1875-.25 18.824219 14.117187.1875c2.597657.03125 4.679688 2.171875 4.644532 4.765625zm0 0"/><path d="m494.117188 275.304688c-3.765626-5.03125-9.269532-8.292969-15.488282-9.179688-6.226562-.894531-12.417968.6875-17.453125 4.460938l-11.292969 8.46875 11.289063 15.0625 11.292969-8.46875c1.359375-1.019532 2.769531-.996094 3.492187-.890626.71875.101563 2.082031.476563 3.097657 1.835938 4.617187 6.160156 11.691406 9.414062 18.855468 9.40625 4.910156 0 9.859375-1.523438 14.082032-4.6875l11.296874-8.464844-11.289062-15.066406-11.292969 8.464844c-2.078125 1.558594-5.035156 1.132812-6.589843-.941406zm0 0"/><path d="m139.476562 407.960938c1.234376 6.160156 4.796876 11.472656 10.023438 14.960937 3.914062 2.605469 8.40625 3.957031 13 3.957031 1.554688 0 3.117188-.15625 4.667969-.46875l13.84375-2.769531-3.691407-18.453125-13.84375 2.765625c-2.546874.507813-5.03125-1.148437-5.542968-3.691406-2.542969-12.71875-14.964844-20.996094-27.691406-18.449219l-13.839844 2.773438 3.695312 18.453124 13.84375-2.773437c2.542969-.496094 5.027344 1.148437 5.535156 3.695313zm0 0"/><path d="m377.921875 506.523438c-.085937 2.59375-2.273437 4.625-4.859375 4.546874-6.269531-.195312-12.265625 2.046876-16.855469 6.34375-4.589843 4.296876-7.226562 10.121094-7.433593 16.40625l-.460938 14.105469 18.8125.621094.460938-14.113281c.085937-2.59375 2.28125-4.613282 4.855468-4.550782 12.972656.421876 23.863282-9.773437 24.292969-22.742187l.460937-14.113281-18.8125-.613282zm0 0"/><path d="m141.175781 275.292969h18.824219v18.824219h-18.824219zm0 0"/><path d="m84.707031 275.292969h18.824219v18.824219h-18.824219zm0 0"/><path d="m103.53125 256.46875h18.820312v18.824219h-18.820312zm0 0"/><path d="m242.351562 284.707031h18.824219v18.824219h-18.824219zm0 0"/><path d="m202.351562 294.117188h14.117188v-18.824219h-14.117188c-2.59375 0-4.703124-2.109375-4.703124-4.707031 0-2.59375 2.109374-4.703126 4.703124-4.703126h14.117188v-18.820312h-14.117188c-12.972656 0-23.527343 10.550781-23.527343 23.523438 0 12.976562 10.554687 23.53125 23.527343 23.53125zm0 0"/><path d="m448.03125 370.789062 9.984375 9.984376 13.3125-13.3125-9.984375-9.980469c-9.175781-9.175781-24.101562-9.175781-33.277344 0-9.175781 9.175781-9.175781 24.101562 0 33.277343l9.984375 9.980469 13.308594-13.3125-9.984375-9.980469c-1.835938-1.835937-1.835938-4.824218 0-6.65625 1.835938-1.835937 4.828125-1.835937 6.65625 0zm0 0"/><path d="m272.9375 228.238281h18.824219v18.824219h-18.824219zm0 0"/><path d="m174.117188 124.707031h18.820312v18.824219h-18.820312zm0 0"/><path d="m348.238281 228.238281h18.824219v18.824219h-18.824219zm0 0"/><path d="m480 200h18.824219v18.824219h-18.824219zm0 0"/><path d="m461.175781 218.824219h18.824219v18.824219h-18.824219zm0 0"/><path d="m404.707031 277.648438h18.824219v18.820312h-18.824219zm0 0"/><path d="m385.882812 341.175781h18.824219v18.824219h-18.824219zm0 0"/><path d="m414.117188 105.882812h18.820312v18.824219h-18.820312zm0 0"/><path d="m432.9375 124.707031h18.824219v18.824219h-18.824219zm0 0"/><path d="m470.585938 407.0625h18.828124v18.820312h-18.828124zm0 0"/><path d="m498.824219 444.707031h18.824219v18.824219h-18.824219zm0 0"/><path d="m268.238281 416.46875c-12.980469 0-23.53125 10.558594-23.53125 23.53125v14.117188h18.824219v-14.117188c0-2.59375 2.109375-4.707031 4.707031-4.707031 2.589844 0 4.699219 2.113281 4.699219 4.707031v14.117188h18.824219v-14.117188c0-12.972656-10.550781-23.53125-23.523438-23.53125zm0 0"/><path d="m272.9375 388.238281h18.824219v18.824219h-18.824219zm0 0"/><path d="m178.824219 491.761719h18.824219v18.824219h-18.824219zm0 0"/><path d="m160 350.585938h18.824219v18.828124h-18.824219zm0 0"/><path d="m122.351562 435.292969h18.824219v18.824219h-18.824219zm0 0"/><path d="m272.9375 538.824219h18.824219v18.824219h-18.824219zm0 0"/><path d="m348.238281 416.46875h18.824219v18.824219h-18.824219zm0 0"/><path d="m348.238281 463.53125h18.824219v18.820312h-18.824219zm0 0"/><path d="m432.9375 501.175781h18.824219v18.824219h-18.824219zm0 0"/></svg>