<svg height="512" viewBox="0 0 512 512" width="512" xmlns="http://www.w3.org/2000/svg"><g id="Solid"><path d="m208 424h224v-160h-224zm192-32h16v16h-16zm-32 0h16v16h-16z"/><path d="m232 176h48v16h-48z"/><path d="m160 160h192a8.009 8.009 0 0 0 8-8v-112a8.009 8.009 0 0 0 -8-8h-192a8.009 8.009 0 0 0 -8 8v112a8.009 8.009 0 0 0 8 8zm112.971-24.4-11.315-11.315 22.628-22.628 11.316 11.314zm11.313-56.57-45.254 45.254-11.314-11.314 45.254-45.254zm-45.255-22.63 11.315 11.315-22.628 22.629-11.316-11.315z"/><path d="m240 208h32v40h-32z"/><path d="m192 264h-24v40a8 8 0 0 1 -8 8h-48a8 8 0 0 1 -8-8v-40h-24v160h112z"/><path d="m48 472h416v16h-416z"/><path d="m24 440h464v16h-464z"/><path d="m120 264h32v32h-32z"/></g></svg>