<?xml version="1.0" encoding="utf-8"?>
<!-- Generator: Adobe Illustrator 25.2.3, SVG Export Plug-In . SVG Version: 6.00 Build 0)  -->
<svg version="1.1"
	 id="Layer_1" xmlns:cc="http://creativecommons.org/ns#" xmlns:dc="http://purl.org/dc/elements/1.1/" xmlns:inkscape="http://www.inkscape.org/namespaces/inkscape" xmlns:rdf="http://www.w3.org/1999/02/22-rdf-syntax-ns#" xmlns:sodipodi="http://sodipodi.sourceforge.net/DTD/sodipodi-0.dtd" xmlns:svg="http://www.w3.org/2000/svg"
	 xmlns="http://www.w3.org/2000/svg" xmlns:xlink="http://www.w3.org/1999/xlink" x="0px" y="0px" viewBox="0 0 28 32"
	 style="enable-background:new 0 0 28 32;" xml:space="preserve">
<g transform="translate(0,-1020.3622)">
	<path d="M10.7,1020.4c-0.3,0-0.5,0.2-0.5,0.5v2c-5,1.6-8.3,6.3-8.3,11.5H0.4c-0.2,0-0.4,0.2-0.4,0.4v2.2c0,0.2,0.2,0.4,0.4,0.4
		h27.2c0.2,0,0.4-0.2,0.4-0.4v-2.2c0-0.2-0.2-0.4-0.4-0.4H26c0.1-5.2-3.3-9.9-8.3-11.5v-2c0-0.3-0.2-0.5-0.5-0.5H10.7z M11.2,1021.3
		h2.3v4.7h0.9v-4.7h2.3v6.1c0,0.3,0.2,0.5,0.4,0.5c0.3,0,0.5-0.2,0.5-0.4c0,0,0,0,0-0.1v-3.6c4.4,1.6,7.4,5.8,7.3,10.6h-0.5
		c-0.2,0-0.4,0.2-0.4,0.4c0,0.2,0.2,0.4,0.4,0.4c0,0,0,0,0,0h2.6v1.4H0.8v-1.4h2.6c0.2,0,0.4-0.2,0.4-0.4c0-0.2-0.2-0.4-0.4-0.4
		c0,0,0,0,0,0H2.9c-0.1-4.7,2.9-9,7.3-10.6v3.6c0,0.3,0.2,0.5,0.4,0.5c0.3,0,0.5-0.2,0.5-0.4c0,0,0,0,0-0.1V1021.3z M7.5,1034.4
		c-0.3,0-0.5,0.2-0.5,0.5c0,0.3,0.2,0.5,0.5,0.5h13.1c0.3,0,0.5-0.2,0.5-0.5c0-0.3-0.2-0.5-0.5-0.5H7.5z M0.5,1038.4
		c-0.3,0-0.5,0.2-0.5,0.5c0,0,0,0,0,0v2c0,0.3,0.2,0.5,0.5,0.5c0,0,0,0,0,0h2.4c0.3,1,0.7,2,1.2,2.8l-1.7,1.7
		c-0.2,0.2-0.2,0.5,0,0.7c0,0,0,0,0,0l3.5,3.5c0.2,0.2,0.5,0.2,0.7,0c0,0,0,0,0,0l1.7-1.7c0.9,0.5,1.8,0.9,2.8,1.2v2.4
		c0,0.3,0.2,0.5,0.5,0.5c0,0,0,0,0,0h4.9c0.3,0,0.5-0.2,0.5-0.5c0,0,0,0,0,0v-2.4c1-0.3,2-0.7,2.8-1.2l1.7,1.7
		c0.2,0.2,0.5,0.2,0.7,0c0,0,0,0,0,0l3.5-3.5c0.2-0.2,0.2-0.5,0-0.7c0,0,0,0,0,0l-1.7-1.7c0.5-0.9,0.9-1.8,1.2-2.8h2.4
		c0.3,0,0.5-0.2,0.5-0.5c0,0,0,0,0,0v-2c0-0.3-0.2-0.5-0.5-0.5c0,0,0,0,0,0H0.5z M0.9,1039.3H7c0,2.5,1.3,4.8,3.4,6.1
		c2.2,1.3,5,1.3,7.2-0.1c2.1-1.3,3.3-3.6,3.3-6h6.1v1h-2.3c-0.2,0-0.4,0.2-0.5,0.4c-0.3,1.2-0.7,2.3-1.4,3.3
		c-0.1,0.2-0.1,0.4,0.1,0.6l1.6,1.6l-2.8,2.8l-1.6-1.6c-0.2-0.2-0.4-0.2-0.6-0.1c-1,0.6-2.1,1.1-3.3,1.3c-0.2,0-0.4,0.2-0.4,0.5v2.3
		h-4v-2.3c0-0.2-0.2-0.4-0.4-0.5c-1.2-0.3-2.3-0.7-3.3-1.4c-0.2-0.1-0.4-0.1-0.6,0.1l-1.6,1.6l-2.8-2.8l1.6-1.6
		c0.2-0.2,0.2-0.4,0.1-0.6c-0.6-1-1.1-2.1-1.3-3.3c0-0.2-0.2-0.4-0.5-0.4H0.9V1039.3z M8,1039.3h12c0,2.1-1,4-2.8,5.1
		c-1.9,1.2-4.3,1.2-6.2,0.1C9.1,1043.4,8,1041.5,8,1039.3z"/>
</g>
</svg>
