<?xml version="1.0" encoding="utf-8"?>
<!-- Generator: Adobe Illustrator 25.2.3, SVG Export Plug-In . SVG Version: 6.00 Build 0)  -->
<svg version="1.1" id="Layer_1" xmlns="http://www.w3.org/2000/svg" xmlns:xlink="http://www.w3.org/1999/xlink" x="0px" y="0px"
	 viewBox="0 0 59.8 60" style="enable-background:new 0 0 59.8 60;" xml:space="preserve">
<g>
	<path d="M58.8,26h-4.9v-6h4.9c0.6,0,1-0.4,1-1c0-0.2,0-0.3-0.1-0.5c-1.5-2.6-4.2-4.3-7.3-4.5l-1.9-3.4C50,9.8,48.9,9.4,48,9.8
		l-5.1,2.2l2.2-5.1c0.4-0.9,0.1-2-0.8-2.5l-3.7-2.1c-0.9-0.5-2-0.3-2.6,0.5l-3.4,4.5L34,1.8c-0.1-1-1-1.8-2-1.8h-4.3
		c-1,0-1.9,0.8-2,1.8l-0.6,5.6l0,0l-3.3-4.5c-0.6-0.8-1.7-1.1-2.6-0.6l-3.6,2.1c-0.9,0.5-1.3,1.6-0.8,2.5l2.2,5.1l-5.1-2.2
		c-0.9-0.4-2-0.1-2.5,0.8l-2,3.4c-3,0.2-5.7,1.9-7.2,4.5C-0.1,19,0,19.6,0.5,19.9C0.7,20,0.8,20,1,20h4.9v6H1c-0.6,0-1,0.4-1,1
		c0,0.2,0,0.3,0.1,0.5c2.2,3.8,6.8,5.5,11,3.9c-0.1,0.5-0.2,1-0.2,1.6c0,0.1,0,0.2,0,0.2l2,8c1,2.9,2.7,5.6,5,7.8v6c0,2.8,2.2,5,5,5
		h14c2.8,0,5-2.2,5-5v-5.6c2.8-2.3,4.8-5.4,5.9-8.9c0,0,0-0.1,0-0.1l1.5-8.7c0.9,0.3,1.7,0.4,2.6,0.4c3.2,0,6.2-1.7,7.8-4.5
		c0.3-0.5,0.1-1.1-0.4-1.4C59.2,26,59,26,58.8,26z M16.1,13.8c1,0.4,2.2,0,2.6-1c0.2-0.5,0.2-1.1,0-1.6l-2.2-5.1L20.2,4l3.3,4.4
		c0.1,0.1,0.1,0.2,0.2,0.3c0,0,0.1,0.1,0.1,0.1c0.5,0.5,1.3,0.7,2,0.4C26.5,9,27,8.3,27.1,7.5L27.7,2H32l0.6,5.6
		c0.1,1.1,1.1,1.9,2.2,1.8c0.6-0.1,1.1-0.4,1.4-0.8L39.6,4l3.7,2.1L41,11.3c-0.4,1,0,2.2,1,2.6c0.5,0.2,1.1,0.2,1.6,0l5.1-2.2
		l1.4,2.5c-1.5,0.3-2.9,0.9-4,1.9c-0.6-0.7-1.4-1.1-2.3-1.1h-2c-0.7,0-1.5,0.3-2,0.8c-0.5-0.4-1-0.7-1.7-0.7
		c-5.5-4.6-13.7-3.9-18.3,1.6c-0.6,0.7-1.1,1.5-1.6,2.4H16c-1.3-2.5-3.6-4.3-6.4-4.8l1.5-2.5L16.1,13.8z M40.9,18c0-0.6,0.4-1,1-1h2
		c0.6,0,1,0.4,1,1v10c0,0.6-0.4,1-1,1h-2c-0.6,0-1-0.4-1-1V18z M33.9,15.8c-0.5-0.5-1.3-0.8-2-0.8h-2c-0.7,0-1.5,0.3-2,0.8
		c-0.5-0.5-1.3-0.8-2-0.8h-0.6c3-1.4,6.6-1.3,9.5,0.2C34.5,15.3,34.2,15.5,33.9,15.8z M20.9,19h-0.2c0.1-0.1,0.1-0.2,0.2-0.3V19z
		 M22.9,18c0-0.6,0.4-1,1-1h2c0.6,0,1,0.4,1,1v7h-4V18z M28.9,18c0-0.6,0.4-1,1-1h2c0.6,0,1,0.4,1,1v7.2c-0.3-0.1-0.7-0.2-1-0.2h-3
		V18z M34.9,18c0-0.6,0.4-1,1-1h2c0.6,0,1,0.4,1,1v10c0,0.6-0.4,1-1,1h-2c-0.6,0-1-0.4-1-1V18z M3,28h3.9c0.6,0,1-0.4,1-1v-8
		c0-0.6-0.4-1-1-1H3c2.8-2.7,7.2-2.7,9.9,0.1c0.6,0.7,1.1,1.4,1.5,2.3c0.2,0.4,0.5,0.6,0.9,0.6h5.6v4h-5.6c-0.4,0-0.8,0.2-0.9,0.6
		c-0.2,0.4-0.4,0.8-0.6,1.2c-0.5,0.5-1,1-1.4,1.6C9.6,30.7,5.6,30.5,3,28z M45.9,39.9c-1,3.3-3,6.1-5.6,8.3
		c-0.2,0.2-0.3,0.5-0.3,0.8V55c0,1.7-1.3,3-3,3h-14c-1.7,0-3-1.3-3-3v-6.4c0-0.3-0.1-0.5-0.3-0.7c-1.1-1.1-3.8-4-4.7-7.2l-2-7.9
		c0-0.6,0.1-1.1,0.2-1.6c0.7-2.2,2.5-3.9,4.8-4.2h13.9c0.5,0,1,0.4,1,0.9c0,0,0,0.1,0,0.1c0,2.8-2.2,5-5,5h-7v2h3.2l0.3,0.2
		c2.1,1.3,3.9,2.4,4.5,5.1c0.4,1.5,0.4,3,0,4.5l1.9,0.5c0.4-1.8,0.4-3.7,0-5.5c-0.5-1.9-1.6-3.6-3.2-4.8h0.2c2.9,0,5.4-1.8,6.5-4.4
		c0.5,0.3,1,0.4,1.5,0.4h2c0.7,0,1.5-0.3,2-0.8c0.5,0.5,1.3,0.8,2,0.8h2c1.4,0,2.5-0.9,2.9-2.2c0.3,0.4,0.5,0.7,0.7,1.1L45.9,39.9z
		 M51.9,30c-0.8,0-1.6-0.1-2.3-0.4c0-0.1-0.1-0.3-0.1-0.4C48.9,28,48,26.9,46.9,26v-7.9c2.7-2.8,7.1-2.8,9.9-0.2c0,0,0,0,0,0h-3.9
		c-0.6,0-1,0.4-1,1v8c0,0.6,0.4,1,1,1h3.9C55.5,29.3,53.8,30,51.9,30z"/>
	<path d="M32.9,54v2c2.8,0,5-2.2,5-5h-2C35.9,52.7,34.6,54,32.9,54z"/>
</g>
</svg>
