<?xml version="1.0" encoding="utf-8"?>
<!-- Generator: Adobe Illustrator 25.2.1, SVG Export Plug-In . SVG Version: 6.00 Build 0)  -->
<svg version="1.1" id="Camada_1" xmlns="http://www.w3.org/2000/svg" xmlns:xlink="http://www.w3.org/1999/xlink" x="0px" y="0px"
	 viewBox="0 0 3000 3000" style="enable-background:new 0 0 3000 3000;" xml:space="preserve">
<g>
	<path d="M427.3,389.4c-12.9,4.9-26.2,8.6-39.8,11.1c-3.8,0.7-6.3,4.4-5.5,8.2c0.6,3.3,3.5,5.7,6.8,5.7c0.4,0,0.9,0,1.3-0.1
		c14.4-2.7,28.5-6.6,42.2-11.8c3.6-1.4,5.4-5.4,4-9.1S430.9,388,427.3,389.4L427.3,389.4L427.3,389.4z"/>
	<path d="M473.7,147.3c-71.7-44.8-197.9-3.9-284.2,44.7C86.1,244.4,62.9,294.8,59.6,324.4c-0.4,0.9-0.6,1.9-0.6,2.8v68
		c0,38.4,28.4,65.2,69.1,65.2c30.1,0,42.9-6.3,57.6-13.5c14.2-7.4,29.3-12.8,45-16.1c22.2-4.9,48.4-0.9,76.1,3.4
		c29.2,4.5,59.4,9.2,87.8,3.7c83.7-16,135.2-61,138.2-120.6c0.1-0.4,0.1-0.7,0.1-1.1v-65.7c0-0.1,0-0.3,0-0.4
		C534.3,210.6,512.3,171.4,473.7,147.3z M196,204.5l0.3-0.1c58.5-33,135.7-62.6,199.4-62.6c26.7,0,51,5.2,70.6,17.4
		c38.3,23.9,58.4,64.3,51.2,102.8c-8.9,47.5-54.6,82.4-125.5,96c-26.1,5-55.1,0.5-83.1-3.8c-29.1-4.5-56.5-8.7-81.3-3.3
		c-16.7,3.5-32.9,9.3-48.1,17.3c-14.3,7-24.6,12.1-51.4,12.1s-48.4-15.1-53.8-37.5C66.4,309.7,94.2,256,196,204.5L196,204.5z
		 M518.9,315.9c-2.2,53-49.7,93.5-126.9,108.2c-26.1,5-55.1,0.5-83.1-3.8c-29.1-4.5-56.6-8.7-81.3-3.3c-16.7,3.5-32.9,9.3-48.1,17.2
		c-14.3,7-24.6,12.1-51.4,12.1c-32.9,0-55.1-20.6-55.1-51.2v-24.9c13.9,15.7,34.1,24.4,55.1,23.9c30.1,0,42.9-6.3,57.6-13.5
		c14.2-7.4,29.3-12.8,45-16.1c22.2-4.9,48.4-0.9,76.1,3.4c29.2,4.5,59.4,9.2,87.8,3.7c59.8-11.4,103.2-37.6,124.3-73.8v17.6
		C518.9,315.6,518.9,315.8,518.9,315.9L518.9,315.9z"/>
	<path d="M128.1,370.3c24.5,0,33.5-4.4,47-11.1c15.9-8.2,32.9-14.3,50.4-18c9.2-2,18.6-2.9,28-2.8c19.1,0.6,38.1,2.5,56.9,5.9
		c18.6,3.4,37.4,5.3,56.3,5.9c7.8,0.1,15.7-0.6,23.4-2c66.7-12.7,109.5-44.8,117.6-88c6.4-34.5-11.9-70.8-46.7-92.5
		c-16.7-10.4-38.5-15.7-64.9-15.7c-54.3,0-127.2,22.8-194.8,61l-0.8,0.4C103.9,262.2,77,311.1,84,340.5
		C88.3,358.3,106,370.3,128.1,370.3L128.1,370.3z M207,225.8l1.1-0.6c65.8-37.1,136.1-59.3,188.1-59.3c23.7,0,43.1,4.6,57.5,13.6
		c29.9,18.7,45.7,49.3,40.3,78.1c-7,37.2-45.8,65.2-106.4,76.8c-6.9,1.2-13.8,1.8-20.8,1.8c-18.2-0.6-36.3-2.5-54.2-5.7
		c-19.5-3.5-39.2-5.6-59.1-6.1c-10.4-0.1-20.8,1-31,3.1c-18.6,3.9-36.6,10.4-53.5,19.1c-12.6,6.2-19.6,9.6-40.8,9.6
		c-15.5,0-27.7-7.7-30.4-19C93.2,318.6,111.2,274.3,207,225.8L207,225.8z"/>
	<path d="M401.5,232.2c16.4,0,29.2-9.3,29.2-21.2s-12.8-21.3-29.2-21.3s-29.2,9.3-29.2,21.3S385.1,232.2,401.5,232.2z M401.5,203.7
		c9.1,0,15.2,4.4,15.2,7.3s-6.1,7.2-15.2,7.2s-15.2-4.4-15.2-7.2S392.4,203.7,401.5,203.7z"/>
</g>
<g>
	<g>
		<path d="M915.1,47c-141.2,0-256,114.8-256,256s114.8,256,256,256s256-114.8,256-256S1056.3,47,915.1,47z M904.4,473.7
			c-17.6,0-32-14.4-32-32s14.4-32,32-32s32,14.4,32,32S922.1,473.7,904.4,473.7z M936.4,343.5v34.1c0,5.9-4.8,10.7-10.7,10.7h-42.7
			c-5.9,0-10.7-4.8-10.7-10.7v-53.3c0-23.5,19.1-42.7,42.7-42.7s42.7-19.1,42.7-42.7s-19.1-42.7-42.7-42.7s-42.7,19.1-42.7,42.7
			v10.7c0,5.9-4.8,10.7-10.7,10.7h-42.7c-5.9,0-10.7-4.8-10.7-10.7V239c0-58.8,47.9-106.7,106.7-106.7s106.7,47.9,106.7,106.7
			C1021.8,290.2,985.7,333.5,936.4,343.5z"/>
	</g>
</g>
<g>
	<g>
		<path d="M1494.7,47c-94.1,0-170.7,76.6-170.7,170.7c0,28.2,7.1,56.3,20.5,81.1l140.8,254.7c1.9,3.4,5.4,5.5,9.3,5.5
			c3.9,0,7.5-2.1,9.3-5.5l140.9-254.8c13.4-24.8,20.4-52.8,20.4-81C1665.4,123.5,1588.8,47,1494.7,47z M1494.7,303
			c-47.1,0-85.3-38.3-85.3-85.3s38.3-85.3,85.3-85.3s85.3,38.3,85.3,85.3S1541.8,303,1494.7,303z"/>
	</g>
</g>
<g>
	<path d="M2165.8,379h75v30h-105v-45c18.2-13.7,30-35.5,30-60c0-10.8-2.3-21-6.4-30.3l70.1-190.8c-6.7-2.5-59.4-35.9-138.7-35.9
		c-79.6,0-131.6,33.2-138.7,35.9l70.1,190.8c-4.1,9.3-6.4,19.5-6.4,30.3c0,24.5,11.8,46.3,30,60v45h-105v-30h75v-30h-181v30h76v30
		h-76v150h512V409h-76v-30h76v-30h-181V379z M2090.8,349c-24.8,0-45-20.2-45-45s20.2-45,45-45s45,20.2,45,45
		C2135.8,328.8,2115.6,349,2090.8,349z M2090.8,199c20.5,0,40.6,6.1,57.7,17.4l-10.7,29.2c-12.9-10.4-29.2-16.6-47-16.6
		c-17.8,0-34.1,6.2-47,16.6l-10.7-29.2C2050.2,205.1,2070.3,199,2090.8,199z M2192,98.1l-32.9,89.5c-17.9-10.5-38.1-16.8-58.8-18.3
		l-26-52l-26.8,13.4l20.2,40.3c-15.9,2.8-31.1,8.4-45,16.6l-32.9-89.5C2053.9,70.1,2127.7,70.1,2192,98.1z M2075.8,377.5
		c4.8,1,9.9,1.5,15,1.5s10.2-0.5,15-1.5V409h-30V377.5z M1935.1,529l15-30h281.5l15,30H1935.1z M2316.8,529h-36.7l-30-60h-318.5
		l-30,60h-36.7v-90h452V529z"/>
	<rect x="2075.8" y="289" width="30" height="30"/>
</g>
<g>
	<path d="M2835.3,191.5h94.6L2810.1,71.8v94.6C2810.1,180.2,2821.4,191.5,2835.3,191.5z"/>
	<path d="M2835.3,221.5c-30.4,0-55.2-24.7-55.2-55.2V63h-201.9c-30.4,0-55.2,24.7-55.2,55.2v401.7c0,30.4,24.7,55.2,55.2,55.2h305.3
		c30.4,0,55.2-24.7,55.2-55.2V221.5L2835.3,221.5z M2714.8,352.2l32.1,0c26,0,47.1,21.2,47.1,47.1c0,26-21.1,47.1-47.1,47.1h-1.1
		v17.1c0,8.3-6.7,15-15,15c-8.3,0-15-6.7-15-15v-17.1h-33.2c-8.3,0-15-6.7-15-15s6.7-15,15-15h64.3c9.4,0,17.1-7.7,17.1-17.1
		s-7.7-17.1-17.1-17.1l-32.1,0c-26,0-47.1-21.1-47.1-47.1c0-26,21.1-47.1,47.1-47.1h1.1v-17.1c0-8.3,6.7-15,15-15
		c8.3,0,15,6.7,15,15v17.1l33.2,0c8.3,0,15,6.7,15,15c0,8.3-6.7,15-15,15l-64.3,0c-9.4,0-17.1,7.7-17.1,17.1
		C2697.6,344.5,2705.3,352.2,2714.8,352.2z"/>
</g>
<g>
	<path d="M594.7,912.8c-3.2-2.7-7.9-2.3-10.6,0.9c-2.7,3.2-2.3,7.9,0.9,10.6c16.2,13.8,24.8,29.2,24.8,44.6
		c0,10.3-3.7,19.1-11.3,26.7c-12.8,12.8-36.5,22.3-70.6,28.3c-30.6,5.4-68.9,8-117.2,7.9c-74.5-0.1-127.1-6.5-159.9-19.7
		c12.7-9,26.2-19.8,40.7-32.5c4.4,5.3,10.7,8.7,17.8,9.5c14.7,1.5,27.9-9.4,29.3-24.2c0.9-9.9,1-19.8,0.1-29.6
		c13.2-13.1,25-25.5,35.7-37.3c6,10.3,10.2,21.1,12.3,32.4c1.9,9.6,2.3,19.5,1.4,29.4c-1.4,14.8,9.4,28,24.1,29.5
		c14.6,1.5,27.8-9.3,29.2-24.2c1.5-15.1,0.8-30.2-2.1-44.9c-3-15.5-8.4-30.4-16.1-44.6c14.4,0.4,28.5,1.6,42.1,3.5
		c12.5,15.9,20.2,33.1,22.9,51.4c1.4,9.6,1.4,19.5,0,29.4c-2.1,14.7,8.1,28.4,22.7,30.5c14.5,2.1,28.2-8,30.3-22.8
		c2.1-15,2.1-30.2-0.1-45c-1.3-8.9-3.4-17.7-6.3-26.3c7.5,2.9,14.6,6,21.3,9.4c3.6,1.8,8.2,0.5,10.1-3.3c1.9-3.7,0.4-8.2-3.3-10.1
		c-41.2-21-98.2-32.5-156.8-32c4-5.2,7.8-10.3,11.3-15.3c22-31.3,32.6-57,32.6-78.5c0-14.8-5.1-27.4-15.3-37.5
		c-21.2-21.2-57.1-24.5-101.1-9.4c-42.2,14.5-87.4,44.4-127.3,84.1c-57.8,57.6-93.7,125.3-93.7,176.6c0,21.3,6.5,39,18.7,51.2
		c10.2,10.1,22.7,15.2,37.4,15.2c15.6,0,33.7-5.7,54.2-17c4.2-2.3,8.5-4.9,12.9-7.7c34.2,16.5,91.4,24.6,174.6,24.7
		c47.6,0.1,89-2.7,119.8-8.1c37.7-6.6,63.4-17.2,78.6-32.4c10.4-10.4,15.7-23,15.7-37.3C624.8,948.8,614.4,929.5,594.7,912.8
		L594.7,912.8z M516.5,889.8c4.8,11.3,8.2,22.9,9.9,34.8c2,13.4,2,27,0.1,40.7c-0.9,6.5-6.9,11-13.3,10.1c-6.4-0.9-10.9-7-10-13.6
		c1.6-11.3,1.6-22.7,0-33.7c-2.4-16-8.1-31.4-17-45.8C496.6,884.3,506.8,886.8,516.5,889.8L516.5,889.8z M323.7,963.3
		c-0.6,6.1-5.6,10.7-11.7,10.7c-3.7,0-7.1-1.7-9.3-4.6c7-6.3,14.2-13.1,21.6-20.3C324.4,953.9,324.2,958.6,323.7,963.3L323.7,963.3z
		 M424.6,922.8c2.6,13.3,3.2,27,1.9,40.6c-0.6,6.5-6.4,11.3-12.8,10.7c-6.5-0.7-11.2-6.5-10.6-13.1c1.1-11.4,0.6-22.7-1.6-33.7
		c-2.8-14.4-8.4-28.3-16.6-41.2c3.1-3.6,6.2-7.2,9.1-10.7c3.9-0.1,7.9-0.3,11.9-0.3C415.1,890.1,421.4,906.1,424.6,922.8
		L424.6,922.8z M302.5,749.6c11.4,4.5,22,10.4,31.6,17.6c10.8,8.1,20.5,17.7,28.8,28.7c3.7,4.9,3.1,11.7-1.4,15.8
		c-5.1,4.7-13.4,3.8-17.6-1.8c-6.9-9.1-14.9-17.2-23.9-23.8c-13-9.7-27.9-16.5-44.4-20.3C284.6,759.8,293.5,754.4,302.5,749.6
		L302.5,749.6z M155.3,894.2c11.7,4,22.7,9.5,32.8,16.3c11.2,7.6,21.3,16.8,30.1,27.4c3.9,4.7,3.6,11.6-0.6,15.8
		c-4.9,4.9-13.2,4.4-17.6-1c-7.3-8.8-15.7-16.5-24.9-22.7c-9.3-6.3-19.5-11.1-30.5-14.6C147.6,908.4,151.3,901.3,155.3,894.2
		L155.3,894.2z M215.9,1016.4c-33.8,18.7-57.9,20.1-73.8,4.3c-9.5-9.5-14.3-23.1-14.3-40.6c0-15.3,3.8-32.6,10.8-50.9
		c10.1,3,19.5,7.4,27.9,13.1c8.1,5.5,15.4,12.1,21.8,19.8c10.1,12.2,28.7,13.2,39.8,2.1c9.8-9.8,10.5-25.2,1.6-36
		c-9.7-11.7-20.9-21.9-33.2-30.3c-10.3-6.9-21.5-12.6-33.3-17c6.1-9.7,13-19.5,20.5-29.1c15.3,0.9,36.3,4.8,55.6,17.9
		c8.1,5.5,15.4,12.1,21.8,19.8c9.5,11.5,26.4,13.1,37.8,3.8c11.5-9.4,13-26.3,3.6-37.8c-6-7.2-12.6-13.9-19.6-19.9
		c-3.2-2.7-7.9-2.3-10.6,0.9c-2.7,3.2-2.3,7.9,0.9,10.6c6.4,5.4,12.4,11.5,17.8,18c4.2,5.1,3.5,12.5-1.5,16.6
		c-5,4.1-12.6,3.3-16.8-1.8c-7.3-8.8-15.7-16.5-24.9-22.7c-15.2-10.3-33.2-16.9-52.6-19.4c5.9-7,12.2-13.8,18.8-20.5
		c11.1,2.6,21.7,6.5,31.6,11.5c3.6,1.8,8.2,0.4,10.1-3.3c1.9-3.7,0.4-8.2-3.3-10.1c-8.2-4.1-16.9-7.5-25.9-10.2
		c10.5-9.9,21.3-19,32.3-27.3c20.1,2.4,37.7,9.1,52.5,20.1c7.8,5.8,14.8,12.8,20.8,20.8c9.5,12.6,28.1,14.4,39.7,3.8
		c10.2-9.3,11.6-24.7,3.3-35.9c-9.1-12.1-19.9-22.8-31.8-31.7c-7.2-5.4-14.9-10.1-23.1-14.1c6.3-2.8,12.5-5.3,18.7-7.4
		c16.6-5.7,31.8-8.5,45-8.5c17.2,0,31.1,4.8,40.7,14.4c7.3,7.3,10.9,16.1,10.9,26.9c0,18.1-10.1,41.6-29.9,69.9
		c-9.9,14.2-22.4,30.7-35.2,44C325.3,926.8,271.2,985.8,215.9,1016.4L215.9,1016.4z"/>
</g>
<g>
	<path d="M998.9,730.4c-56.7-56.7-149.1-56.7-205.9,0c-56.7,56.8-56.7,149.1,0,205.9c50.5,50.5,129.2,55.9,186,16.5
		c1.2,5.6,3.9,11,8.3,15.4l82.6,82.6c12,12,31.5,12,43.5,0c12-12,12-31.5,0-43.5l-82.6-82.7c-4.4-4.4-9.8-7.1-15.4-8.3
		C1054.8,859.6,1049.4,780.9,998.9,730.4z M972.8,910.2c-42.4,42.4-111.3,42.4-153.7,0c-42.3-42.4-42.3-111.3,0-153.7
		c42.4-42.4,111.3-42.4,153.7,0C1015.1,798.9,1015.1,867.8,972.8,910.2z"/>
</g>
<g>
	<path d="M1665.4,711.9c-45.3-45.3-105.6-70.3-169.7-70.3s-124.4,25-169.7,70.3c-45.3,45.3-70.3,105.6-70.3,169.7
		s25,124.4,70.3,169.7c45.3,45.3,105.6,70.3,169.7,70.3s124.4-25,169.7-70.3c45.3-45.3,70.3-105.6,70.3-169.7
		S1710.7,757.2,1665.4,711.9z M1502.8,691.2c47.5,1.7,90.5,20.9,123,51.3l-123,123V691.2z M1488.6,710.6c-2.7-1.2-5.7-1.9-8.8-1.9
		c-11.7,0-21.2,9.5-21.2,21.2c0,11.7,9.5,21.2,21.2,21.2c3.1,0,6.1-0.7,8.8-1.9v116.4l-123-123c32.5-30.4,75.6-49.5,123-51.3V710.6z
		 M1486.9,729.8c0,3.9-3.2,7.1-7.1,7.1s-7.1-3.2-7.1-7.1c0-3.9,3.2-7.1,7.1-7.1S1486.9,725.9,1486.9,729.8z M1478.7,875.4h-173.4
		c1.5-47.4,20.4-90.4,50.5-123L1478.7,875.4z M1349.2,897.5c0,3.9-3.2,7.1-7.1,7.1s-7.1-3.2-7.1-7.1s3.2-7.1,7.1-7.1
		S1349.2,893.6,1349.2,897.5z M1322.5,889.5c-1,2.5-1.5,5.1-1.5,7.9c0,11.7,9.5,21.2,21.2,21.2c11.7,0,21.2-9.5,21.2-21.2
		c0-2.8-0.6-5.5-1.6-7.9h116.9l-28,28.1c-2.7-8.6-10.7-14.8-20.2-14.8c-11.7,0-21.2,9.5-21.2,21.2c0,9.5,6.2,17.5,14.8,20.2
		l-67.5,67.5c-30.2-32.3-49.3-75-51.2-122.1H1322.5z M1423.3,923.9c0-3.9,3.2-7.1,7.1-7.1c3.9,0,7.1,3.2,7.1,7.1
		c0,3.9-3.2,7.1-7.1,7.1C1426.5,931,1423.3,927.8,1423.3,923.9z M1488.6,899.5V1072c-47-1.7-89.7-20.5-122.1-50.4L1488.6,899.5z
		 M1502.8,899.5l59.2,59.2c-9.8,3.3-16.9,12.5-16.9,23.4c0,13.6,11.1,24.7,24.7,24.7c10.9,0,20.1-7.1,23.4-16.9l31.6,31.6
		c-32.4,29.9-75.1,48.7-122.1,50.4V899.5z M1580.4,982.2c0,5.8-4.7,10.6-10.6,10.6c-5.8,0-10.6-4.8-10.6-10.6
		c0-5.8,4.7-10.6,10.6-10.6C1575.7,971.6,1580.4,976.3,1580.4,982.2z M1512.7,889.5h173.4c-1.9,47.1-21.1,89.8-51.2,122.1
		L1512.7,889.5z M1673.9,818.1c0,5.8-4.8,10.6-10.6,10.6c-5.8,0-10.6-4.8-10.6-10.6s4.7-10.6,10.6-10.6
		C1669.2,807.5,1673.9,812.2,1673.9,818.1z M1663.3,793.4c-13.6,0-24.7,11.1-24.7,24.7s11.1,24.7,24.7,24.7c6.7,0,12.9-2.7,17.3-7.1
		c3.2,12.8,5.1,26.1,5.5,39.8h-173.4l123-123c11.3,12.3,21.1,26,28.9,41C1664.2,793.4,1663.8,793.4,1663.3,793.4z M1635.8,732.4
		c-36.4-34.2-83.2-53.7-133.1-55.4v-21.2c55.5,1.7,107.7,23.4,148,61.6L1635.8,732.4z M1488.6,677c-49.9,1.7-96.7,21.1-133.1,55.4
		l-15-15c40.4-38.2,92.5-59.9,148-61.6V677z M1345.6,742.4c-33.9,36.5-53.1,83.2-54.5,133h-21.2c1.5-55.5,22.9-107.5,60.7-148
		L1345.6,742.4z M1291.2,889.5c1.9,49.6,21.3,96,55.3,132.2l-15,15c-38-40.2-59.6-91.9-61.5-147.2H1291.2z M1356.5,1031.7
		c36.3,33.7,82.7,52.8,132.1,54.5v21.2c-55.1-1.7-106.9-23-147.1-60.7L1356.5,1031.7z M1502.8,1086.2c49.5-1.7,95.9-20.8,132.1-54.5
		l15,15c-40.3,37.7-92,59-147.1,60.7V1086.2z M1644.9,1021.7c34-36.2,53.4-82.6,55.3-132.2h21.2c-1.9,55.2-23.5,107-61.5,147.2
		L1644.9,1021.7z M1700.3,875.4c-1.5-49.8-20.7-96.6-54.5-133l15-15c37.9,40.5,59.3,92.5,60.7,148H1700.3z"/>
	<path d="M1439.2,996.3c-11.7,0-21.2,9.5-21.2,21.2c0,11.7,9.5,21.2,21.2,21.2c11.7,0,21.2-9.5,21.2-21.2
		C1460.4,1005.8,1450.9,996.3,1439.2,996.3z M1439.2,1024.5c-3.9,0-7.1-3.2-7.1-7.1s3.2-7.1,7.1-7.1s7.1,3.2,7.1,7.1
		S1443.1,1024.5,1439.2,1024.5z"/>
	<path d="M1361.6,819.8c11.7,0,21.2-9.5,21.2-21.2c0-11.7-9.5-21.2-21.2-21.2c-11.7,0-21.2,9.5-21.2,21.2
		C1340.4,810.3,1349.9,819.8,1361.6,819.8z M1361.6,791.6c3.9,0,7.1,3.2,7.1,7.1c0,3.9-3.2,7.1-7.1,7.1s-7.1-3.2-7.1-7.1
		C1354.5,794.8,1357.7,791.6,1361.6,791.6z"/>
	<path d="M1539.8,763.4c-11.7,0-21.2,9.5-21.2,21.2c0,11.7,9.5,21.2,21.2,21.2c11.7,0,21.2-9.5,21.2-21.2
		C1561,772.9,1551.5,763.4,1539.8,763.4z M1539.8,791.6c-3.9,0-7.1-3.2-7.1-7.1c0-3.9,3.2-7.1,7.1-7.1s7.1,3.2,7.1,7.1
		C1546.9,788.4,1543.7,791.6,1539.8,791.6z"/>
	<path d="M1432.2,784.5c0,11.7,9.5,21.2,21.2,21.2c11.7,0,21.2-9.5,21.2-21.2c0-11.7-9.5-21.2-21.2-21.2
		C1441.7,763.4,1432.2,772.9,1432.2,784.5z M1453.3,777.5c3.9,0,7.1,3.2,7.1,7.1c0,3.9-3.2,7.1-7.1,7.1c-3.9,0-7.1-3.2-7.1-7.1
		C1446.3,780.6,1449.5,777.5,1453.3,777.5z"/>
	<path d="M1642.2,899.2c-11.7,0-21.2,9.5-21.2,21.2c0,11.7,9.5,21.2,21.2,21.2c11.7,0,21.2-9.5,21.2-21.2
		C1663.3,908.7,1653.8,899.2,1642.2,899.2z M1642.2,927.5c-3.9,0-7.1-3.2-7.1-7.1s3.2-7.1,7.1-7.1s7.1,3.2,7.1,7.1
		S1646.1,927.5,1642.2,927.5z"/>
	<path d="M1425.1,749.2c0-1.9,1.6-3.5,3.5-3.5c9.7,0,17.6-7.9,17.6-17.6v-10.6h-14.1v10.6c0,1.9-1.6,3.5-3.5,3.5
		c-9.7,0-17.6,7.9-17.6,17.6v10.6h14.1V749.2z"/>
	<path d="M1530.9,735.3c-0.1,4.7,1.7,9.2,5,12.5c3.3,3.4,7.7,5.3,12.4,5.3l10.6,0.1l0.2-14.1l-10.6-0.1c-1.3,0-2.1-0.7-2.5-1.1
		c-0.4-0.4-1-1.2-1-2.5c0.1-9.7-7.7-17.8-17.4-17.9l-10.6-0.1l-0.2,14.1l10.6,0.1C1529.3,731.8,1530.9,733.4,1530.9,735.3z"/>
	<path d="M1626.3,848.1c-2.8-3.8-7-6.2-11.6-6.9c-4.7-0.7-9.3,0.5-13.1,3.3l-8.5,6.4l8.5,11.3l8.5-6.4c1-0.8,2.1-0.7,2.6-0.7
		c0.5,0.1,1.6,0.4,2.3,1.4c3.5,4.6,8.8,7.1,14.1,7.1c3.7,0,7.4-1.1,10.6-3.5l8.5-6.3l-8.5-11.3l-8.5,6.3
		C1629.7,849.9,1627.5,849.6,1626.3,848.1z"/>
	<path d="M1360.3,947.6c0.9,4.6,3.6,8.6,7.5,11.2c2.9,2,6.3,3,9.8,3c1.2,0,2.3-0.1,3.5-0.4l10.4-2.1l-2.8-13.8l-10.4,2.1
		c-1.9,0.4-3.8-0.9-4.2-2.8c-1.9-9.5-11.2-15.7-20.8-13.8L1343,933l2.8,13.8l10.4-2.1C1358.1,944.4,1359.9,945.7,1360.3,947.6z"/>
	<path d="M1539.1,1021.5c-0.1,1.9-1.7,3.5-3.6,3.4c-4.7-0.1-9.2,1.5-12.6,4.8s-5.4,7.6-5.6,12.3l-0.3,10.6l14.1,0.5l0.3-10.6
		c0.1-1.9,1.7-3.5,3.6-3.4c9.7,0.3,17.9-7.3,18.2-17.1l0.3-10.6l-14.1-0.5L1539.1,1021.5z"/>
	<path d="M1361.6,848.1h14.1v14.1h-14.1V848.1z"/>
	<path d="M1319.2,848.1h14.1v14.1h-14.1V848.1z"/>
	<path d="M1333.3,833.9h14.1v14.1h-14.1V833.9z"/>
	<path d="M1437.5,855.1h14.1v14.1h-14.1V855.1z"/>
	<path d="M1407.5,862.2h10.6v-14.1h-10.6c-1.9,0-3.5-1.6-3.5-3.5c0-1.9,1.6-3.5,3.5-3.5h10.6v-14.1h-10.6c-9.7,0-17.6,7.9-17.6,17.6
		C1389.8,854.3,1397.7,862.2,1407.5,862.2z"/>
	<path d="M1591.7,919.7l7.5,7.5l10-10l-7.5-7.5c-6.9-6.9-18.1-6.9-25,0s-6.9,18.1,0,25l7.5,7.5l10-10l-7.5-7.5c-1.4-1.4-1.4-3.6,0-5
		C1588.1,918.3,1590.4,918.3,1591.7,919.7z"/>
	<path d="M1460.4,812.8h14.1v14.1h-14.1V812.8z"/>
	<path d="M1386.3,735.1h14.1v14.1h-14.1V735.1z"/>
	<path d="M1516.9,812.8h14.1v14.1h-14.1V812.8z"/>
	<path d="M1615.7,791.6h14.1v14.1h-14.1V791.6z"/>
	<path d="M1601.6,805.7h14.1v14.1h-14.1V805.7z"/>
	<path d="M1559.2,849.8h14.1v14.1h-14.1V849.8z"/>
	<path d="M1545.1,897.5h14.1v14.1h-14.1V897.5z"/>
	<path d="M1566.3,721h14.1v14.1h-14.1V721z"/>
	<path d="M1580.4,735.1h14.1v14.1h-14.1V735.1z"/>
	<path d="M1608.6,946.9h14.1V961h-14.1V946.9z"/>
	<path d="M1629.8,975.1h14.1v14.1h-14.1V975.1z"/>
	<path d="M1456.9,953.9c-9.7,0-17.6,7.9-17.6,17.6v10.6h14.1v-10.6c0-1.9,1.6-3.5,3.5-3.5c1.9,0,3.5,1.6,3.5,3.5v10.6h14.1v-10.6
		C1474.5,961.9,1466.6,953.9,1456.9,953.9z"/>
	<path d="M1460.4,932.8h14.1v14.1h-14.1V932.8z"/>
	<path d="M1389.8,1010.4h14.1v14.1h-14.1V1010.4z"/>
	<path d="M1375.7,904.5h14.1v14.1h-14.1V904.5z"/>
	<path d="M1347.5,968.1h14.1v14.1h-14.1V968.1z"/>
	<path d="M1460.4,1045.7h14.1v14.1h-14.1V1045.7z"/>
	<path d="M1516.9,953.9h14.1v14.1h-14.1V953.9z"/>
	<path d="M1516.9,989.2h14.1v14.1h-14.1V989.2z"/>
	<path d="M1580.4,1017.5h14.1v14.1h-14.1V1017.5z"/>
</g>
<g id="Solid">
	<path d="M2042.8,1039.1h224v-160h-224V1039.1z M2234.8,1007.1h16v16h-16V1007.1z M2202.8,1007.1h16v16h-16V1007.1z"/>
	<path d="M2066.8,791.1h48v16h-48V791.1z"/>
	<path d="M1994.8,775.1h192c4.4,0,8-3.6,8-8v-112c0-4.4-3.6-8-8-8h-192c-4.4,0-8,3.6-8,8v112
		C1986.8,771.5,1990.4,775.1,1994.8,775.1z M2107.8,750.7l-11.3-11.3l22.6-22.6l11.3,11.3L2107.8,750.7z M2119.1,694.2l-45.3,45.3
		l-11.3-11.3l45.3-45.3L2119.1,694.2z M2073.8,671.5l11.3,11.3l-22.6,22.6l-11.3-11.3L2073.8,671.5z"/>
	<path d="M2074.8,823.1h32v40h-32V823.1z"/>
	<path d="M2026.8,879.1h-24v40c0,4.4-3.6,8-8,8h-48c-4.4,0-8-3.6-8-8v-40h-24v160h112V879.1z"/>
	<path d="M1882.8,1087.1h416v16h-416V1087.1z"/>
	<path d="M1858.8,1055.1h464v16h-464V1055.1z"/>
	<path d="M1954.8,879.1h32v32h-32V879.1z"/>
</g>
<g>
	<g>
		<g>
			<path d="M2798.6,835.1l-5.1-16.9c-6.5-19.2-27.4-29.5-46.6-23c-10.8,3.7-19.3,12.2-23,23l-5.1,16.9c-4.3,14.3-5.2,29.3-2.6,44
				c2.4,12.4,10.2,23,21.3,28.8l-5.8,128.6c-0.8,7.2,1.6,14.3,6.4,19.7c10.4,11.4,28.1,12.2,39.5,1.8c0.6-0.6,1.2-1.2,1.8-1.8
				c4.7-5.2,7.1-12.2,6.4-19.2l-5.8-129.1c11.1-5.9,18.9-16.5,21.3-28.8C2803.8,864.5,2802.9,849.4,2798.6,835.1z M2785.4,876.4
				c-1.7,8.9-8.1,16.2-16.6,19.1c-3.2,1.2-5.3,4.4-5.2,7.8l6.1,135c0.3,2.6-0.6,5.3-2.4,7.2c-4.8,4.8-12.6,4.8-17.4,0
				c-1.9-2.1-2.8-5-2.4-7.8l6-134.5c0.2-3.5-1.9-6.6-5.2-7.8c-8.5-3-14.9-10.2-16.6-19.1c-2.1-12.2-1.4-24.7,2.2-36.5l5.1-16.9
				c4-10.7,15.9-16.2,26.7-12.3c5.7,2.1,10.2,6.6,12.3,12.3l5.1,16.9C2786.8,851.7,2787.6,864.2,2785.4,876.4z"/>
		</g>
	</g>
	<g>
		<g>
			<path d="M2674.6,793.4c-4.4,0-8,3.6-8,8V870l-21.7,21.7c-1.6,1.6-2.5,3.8-2.3,6.1l7,140c0.2,3-0.9,6-3,8.2
				c-4.4,4.4-11.5,4.4-15.9,0.1c0,0,0,0-0.1-0.1c-2.1-2.2-3.2-5.1-3-8.2l7-140c0.1-2.3-0.7-4.5-2.3-6.1l-21.7-21.7v-68.7
				c0-4.4-3.6-8-8-8s-8,3.6-8,8v72c0,2.1,0.8,4.2,2.3,5.7l21.5,21.5l-6.8,136.5c-0.7,14.9,10.8,27.6,25.7,28.3
				c14.9,0.7,27.6-10.8,28.3-25.7c0-0.9,0-1.8,0-2.6l-6.8-136.5l21.5-21.5c1.5-1.5,2.3-3.5,2.3-5.7v-72
				C2682.6,796.9,2679.1,793.4,2674.6,793.4z"/>
		</g>
	</g>
	<g>
		<g>
			<path d="M2626.6,793.4c-4.4,0-8,3.6-8,8v64c0,4.4,3.6,8,8,8s8-3.6,8-8v-64C2634.6,796.9,2631.1,793.4,2626.6,793.4z"/>
		</g>
	</g>
	<g>
		<g>
			<path d="M2650.6,793.4c-4.4,0-8,3.6-8,8v64c0,4.4,3.6,8,8,8s8-3.6,8-8v-64C2658.6,796.9,2655.1,793.4,2650.6,793.4z"/>
		</g>
	</g>
	<g>
		<g>
			<path d="M2698.6,673.4c-132.5,0-240,107.5-240,240s107.5,240,240,240c132.5,0,240-107.5,240-240
				C2938.5,780.9,2831.1,673.5,2698.6,673.4z M2698.6,1137.4c-123.7,0-224-100.3-224-224s100.3-224,224-224
				c123.7,0,224,100.3,224,224C2922.5,1037,2822.3,1137.2,2698.6,1137.4z"/>
		</g>
	</g>
	<g>
		<g>
			<path d="M2724.6,1063.5c-0.4-4.4-4.3-7.6-8.7-7.2c-0.1,0-0.2,0-0.3,0l0,0c-11.3,1.3-22.6,1.3-33.9,0c-4.4-0.5-8.4,2.6-8.9,7
				c-0.5,4.4,2.6,8.4,7,8.9c12.5,1.5,25.1,1.5,37.6,0C2721.8,1071.8,2725,1067.9,2724.6,1063.5z"/>
		</g>
	</g>
	<g>
		<g>
			<path d="M2821.1,810.3c-2.8-3.4-7.9-3.8-11.3-1c0,0,0,0,0,0c-3.4,2.8-3.8,7.9-1,11.3c48.2,57.3,44.5,141.9-8.5,194.8
				c-3.1,3.1-3.1,8.2,0,11.3c3.1,3.1,8.2,3.1,11.3,0C2870.5,968,2874.6,873.9,2821.1,810.3z"/>
		</g>
	</g>
	<g>
		<g>
			<g>
				<path d="M2645,779.1C2645,779.1,2645,779.1,2645,779.1C2645,779.1,2645,779.1,2645,779.1L2645,779.1z"/>
				<path d="M2736.4,757.8c-31.3-7.5-64.1-5.5-94.2,5.8c-4.1,1.6-6.2,6.2-4.7,10.3c1.2,3.1,4.2,5.2,7.5,5.2c1,0,1.9-0.2,2.8-0.5
					c27.1-10.1,56.6-12,84.8-5.2c4.3,1,8.6-1.6,9.7-5.9C2743.3,763.2,2740.7,758.9,2736.4,757.8z"/>
			</g>
		</g>
	</g>
	<g>
		<g>
			<path d="M2596.6,1015c-27-26.9-42.1-63.5-42-101.6c-0.1-30.4,9.6-60.1,27.5-84.7c2.7-3.5,1.9-8.5-1.6-11.2
				c-3.5-2.7-8.5-1.9-11.2,1.6c0,0.1-0.1,0.1-0.1,0.2c-46.3,63.6-39.4,151.4,16.1,207.1c3.1,3.1,8.2,3.1,11.3,0
				C2599.8,1023.2,2599.8,1018.1,2596.6,1015z"/>
		</g>
	</g>
</g>
<g transform="translate(0,-1020.3622)">
	<path d="M322.6,2282.2c-4.5,0-7.4,3-7.4,7.4v29.7c-74.2,23.7-123.2,93.5-123.2,170.6h-22.3c-3,0-5.9,3-5.9,5.9v32.6
		c0,3,3,5.9,5.9,5.9h403.6c3,0,5.9-3,5.9-5.9v-32.6c0-3-3-5.9-5.9-5.9h-23.7c1.5-77.2-49-146.9-123.2-170.6v-29.7
		c0-4.5-3-7.4-7.4-7.4H322.6z M330,2295.6h34.1v69.7h13.4v-69.7h34.1v90.5c0,4.5,3,7.4,5.9,7.4c4.5,0,7.4-3,7.4-5.9c0,0,0,0,0-1.5
		v-53.4c65.3,23.7,109.8,86.1,108.3,157.3h-7.4c-3,0-5.9,3-5.9,5.9c0,3,3,5.9,5.9,5.9l0,0h38.6v20.8H175.7v-20.8h38.6
		c3,0,5.9-3,5.9-5.9c0-3-3-5.9-5.9-5.9l0,0h-7.4c-1.5-69.7,43-133.5,108.3-157.3v53.4c0,4.5,3,7.4,5.9,7.4c4.5,0,7.4-3,7.4-5.9
		c0,0,0,0,0-1.5v-90.5H330z M275.1,2489.9c-4.5,0-7.4,3-7.4,7.4c0,4.5,3,7.4,7.4,7.4h194.4c4.5,0,7.4-3,7.4-7.4c0-4.5-3-7.4-7.4-7.4
		H275.1z M171.3,2549.3c-4.5,0-7.4,3-7.4,7.4l0,0v29.7c0,4.5,3,7.4,7.4,7.4l0,0h35.6c4.5,14.8,10.4,29.7,17.8,41.5l-25.2,25.2
		c-3,3-3,7.4,0,10.4l0,0l51.9,51.9c3,3,7.4,3,10.4,0l0,0l25.2-25.2c13.4,7.4,26.7,13.4,41.5,17.8v35.6c0,4.5,3,7.4,7.4,7.4l0,0h72.7
		c4.5,0,7.4-3,7.4-7.4l0,0v-35.6c14.8-4.5,29.7-10.4,41.5-17.8l25.2,25.2c3,3,7.4,3,10.4,0l0,0l51.9-51.9c3-3,3-7.4,0-10.4l0,0
		l-25.2-25.2c7.4-13.4,13.4-26.7,17.8-41.5h35.6c4.5,0,7.4-3,7.4-7.4l0,0v-29.7c0-4.5-3-7.4-7.4-7.4l0,0H171.3z M177.2,2562.6h90.5
		c0,37.1,19.3,71.2,50.4,90.5c32.6,19.3,74.2,19.3,106.8-1.5c31.2-19.3,49-53.4,49-89h90.5v14.8h-34.1c-3,0-5.9,3-7.4,5.9
		c-4.5,17.8-10.4,34.1-20.8,49c-1.5,3-1.5,5.9,1.5,8.9l23.7,23.7l-41.5,41.5l-23.7-23.7c-3-3-5.9-3-8.9-1.5
		c-14.8,8.9-31.2,16.3-49,19.3c-3,0-5.9,3-5.9,7.4v34.1h-59.4v-34.1c0-3-3-5.9-5.9-7.4c-17.8-4.5-34.1-10.4-49-20.8
		c-3-1.5-5.9-1.5-8.9,1.5l-23.7,23.7l-41.5-41.5l23.7-23.7c3-3,3-5.9,1.5-8.9c-8.9-14.8-16.3-31.2-19.3-49c0-3-3-5.9-7.4-5.9h-31.2
		V2562.6z M282.6,2562.6h178.1c0,31.2-14.8,59.4-41.5,75.7c-28.2,17.8-63.8,17.8-92,1.5C298.9,2623.5,282.6,2595.3,282.6,2562.6z"/>
</g>
<g>
	<g>
		<path d="M1056.8,1494l-208.8-143c-9.6-6.6-19.4-10.1-27.4-10.1c-15.6,0-25.3,12.5-25.3,33.5v309c0,21,9.6,33.5,25.2,33.5
			c8.1,0,17.7-3.5,27.3-10.1l208.9-143c13.4-9.2,20.9-21.6,20.9-34.9C1077.6,1515.6,1070.2,1503.2,1056.8,1494z"/>
	</g>
</g>
<g>
	<path d="M1347.3,1612.3c-20.5-1-20.1-29.9,0-30.9c57.1,0.2,207.6,0.1,266.5,0.1c16.1,0,29.9-11,33.5-26.7l33.4-144.8
		c1.9-8.3,0-16.9-5.3-23.5c-5.3-6.7-13.2-10.5-21.7-10.5c-23.7,0-224.8-0.9-327.8-1.3l-16.3-60.6c-3.9-14.5-17.1-24.6-32.1-24.6
		h-52.3c-7.6,0-13.8,6.2-13.8,13.8c0,7.6,6.2,13.8,13.8,13.8h52.3c2.6,0,4.9,1.7,5.5,4.2l62.7,232.6c-11,0.4-21.3,4.9-29.1,12.8
		c-8.2,8.3-12.6,19.3-12.4,30.9c0.4,23.3,19.7,42.3,43,42.3h20.1c-3,6.3-4.7,13.3-4.7,20.7c0,26.6,21.6,48.2,48.2,48.2
		c26.6,0,48.2-21.6,48.2-48.2c0-7.4-1.7-14.4-4.7-20.7h87c-3,6.3-4.7,13.3-4.7,20.7c0,26.6,21.6,48.2,48.2,48.2
		c26.6,0,48.2-21.6,48.2-48.2c0-7.7-1.8-14.9-5-21.4c5.5-1.8,9.4-7,9.4-13c0-7.6-6.2-13.8-13.8-13.8H1347.3z M1431.7,1660.5
		c0,11.4-9.3,20.7-20.7,20.7c-11.4,0-20.7-9.3-20.7-20.7c0-11.4,9.3-20.7,20.7-20.7h0C1422.4,1639.8,1431.7,1649.1,1431.7,1660.5z
		 M1585.1,1681.2c-11.4,0-20.7-9.3-20.7-20.7c0-11.3,9.1-20.5,20.3-20.7h0.7c11.2,0.2,20.3,9.4,20.3,20.7
		C1605.8,1671.9,1596.5,1681.2,1585.1,1681.2L1585.1,1681.2z M1653.9,1403.6c0.1,0.1,0.1,0.2,0.1,0.2l-14.1,61h-47.7l8.1-61.6
		l53.4,0.2C1653.7,1403.5,1653.8,1403.5,1653.9,1403.6L1653.9,1403.6z M1511.8,1553.9v-61.5h48.9l-8.1,61.5H1511.8z M1443.5,1553.9
		l-8.2-61.5h49v61.5H1443.5z M1380.1,1553.9L1380.1,1553.9c-3.4,0-6.4-2.3-7.2-5.5l-15.1-56h49.8l8.2,61.5H1380.1z M1431.7,1464.8
		l-8.3-62.3l60.9,0.2v62L1431.7,1464.8z M1511.8,1464.8v-61.9l60.6,0.2l-8.1,61.7H1511.8z M1395.6,1402.4l8.3,62.4h-53.5l-16.9-62.6
		L1395.6,1402.4z M1613.8,1553.9h-33.5l8.1-61.5h45l-13,56.2C1619.8,1551.7,1617,1553.9,1613.8,1553.9z"/>
</g>
<g>
	<path d="M2068.2,1502c24.1,0,80.8-29,80.8-98.6c0-9.7-0.2-19.1-1-27.9c-1.3-17.4-4.9-32.9-13.8-44.7c-11.4-16.1-31.4-25.9-66-25.9
		c-34.7,0-54.6,9.8-66,25.9c-8.9,11.8-12.5,27.3-13.8,44.7c-0.8,8.9-1,18.2-1,27.9C1987.3,1473,2044,1502,2068.2,1502z
		 M2094.6,1340.9c-2.4,6-3.5,8.9-5.9,14.9c-15.2-4.3-25.8-4.3-41,0c-2.4-5.9-3.5-8.9-5.9-14.9
		C2060.8,1335.2,2075.5,1335.2,2094.6,1340.9z M1999.4,1388.3c0.9,2,4.9,9.9,11,10.6c7,0.8,18.7-24.9,57.8-25
		c39.1,0.1,50.8,25.8,57.8,25c6.1-0.7,10.1-8.6,11-10.6c0.2,5,0.3,10,0.3,15.1c0,34-15,55.1-27.6,66.8
		c-15.9,14.7-33.5,20.1-41.5,20.1s-25.6-5.3-41.5-20.1c-12.6-11.7-27.6-32.8-27.6-66.8C1999.1,1398.4,1999.2,1393.3,1999.4,1388.3z"
		/>
	<path d="M2218.3,1603.1c-4.1-25.7-12.6-58.7-29.7-70.5c-11.6-8-52.2-29.7-69.6-39l-0.3-0.2c-2-1.1-4.4-0.8-6.2,0.5
		c-9.1,7.1-19,11.9-29.6,14.3c-1.9,0.4-3.4,1.7-4.1,3.5l-10.7,28.3l-10.7-28.3c-0.7-1.8-2.2-3.1-4.1-3.5
		c-10.5-2.3-20.5-7.2-29.6-14.3c-1.8-1.4-4.2-1.6-6.2-0.5c-17.1,9.2-58.2,31.3-69.8,39.1c-19.6,13.2-28.2,61.1-29.7,70.5
		c-0.1,0.9-0.1,1.9,0.3,2.8c0.4,1.2,6.9,18,39.4,31.5c1.9-2.4,4.4-4.1,7.2-5.2c-3.5-1.2-6.5-3.7-8.4-6.9c-2.9-4.8-3-10.9-0.3-15.9
		c8.3-15.2,24.3-24.7,41.6-24.7c16.1,0,30.8,8,39.5,21.1h61.9c1.7-2.5,3.6-4.9,5.8-7.1c8.9-9,20.9-13.9,33.5-13.9h0h0
		c17.3,0,33.3,9.4,41.6,24.6c2.7,4.9,2.6,11-0.2,15.9c-1.9,3.3-4.9,5.7-8.4,6.9c2.9,1,5.4,2.8,7.3,5.2
		c32.4-13.5,38.8-30.3,39.3-31.5C2218.3,1605,2218.4,1604.1,2218.3,1603.1z"/>
	<path d="M2166.2,1645.2L2166.2,1645.2l-29.8,0c-0.5-1.3-1.5-4.7-1.6-13.1c0-8.3,1-11.8,1.5-13.1l29.8,0c0.7,0,1.4-0.4,1.7-1
		c0.4-0.6,0.4-1.4,0-2c-5.9-10.7-17.1-17.3-29.4-17.3c-8.9,0-17.3,3.5-23.6,9.8c-3.2,3.3-5.7,7.1-7.4,11.2h-78.7
		c-4.9-12.3-17-21.1-31.1-21.1c-12.2,0-23.5,6.7-29.3,17.4c-0.3,0.6-0.3,1.4,0,2c0.4,0.6,1,1,1.7,1h0l29.8,0
		c0.5,1.3,1.5,4.7,1.6,13.1c0,8.3-1,11.8-1.5,13.1l-29.8,0c-0.7,0-1.4,0.4-1.7,1c-0.4,0.6-0.4,1.4,0,2c5.9,10.7,17.1,17.3,29.3,17.3
		h0c8.9,0,17.3-3.5,23.6-9.8c3.2-3.3,5.7-7.1,7.4-11.2h78.7c4.9,12.3,17,21.1,31,21.1c0,0,0,0,0,0c12.2,0,23.5-6.7,29.3-17.4
		c0.3-0.6,0.3-1.4,0-2C2167.5,1645.6,2166.9,1645.2,2166.2,1645.2z"/>
</g>
<g>
	<path d="M2849.2,1463.2h-26.9v-33h26.9c3.3,0,5.5-2.2,5.5-5.5c0-1.1,0-1.6-0.5-2.7c-8.2-14.3-23.1-23.6-40.1-24.7l-10.4-18.7
		c-2.7-4.4-8.8-6.6-13.7-4.4l-28,12.1l12.1-28c2.2-4.9,0.5-11-4.4-13.7l-20.3-11.5c-4.9-2.7-11-1.6-14.3,2.7l-18.7,24.7l-3.3-30.2
		c-0.6-5.5-5.5-9.9-11-9.9h-23.6c-5.5,0-10.4,4.4-11,9.9l-3.3,30.8l0,0l-18.1-24.7c-3.3-4.4-9.3-6-14.3-3.3l-19.8,11.5
		c-4.9,2.7-7.1,8.8-4.4,13.7l12.1,28l-28-12.1c-4.9-2.2-11-0.5-13.7,4.4l-11,18.7c-16.5,1.1-31.3,10.4-39.6,24.7
		c-1.6,2.7-1.1,6,1.6,7.7c1.1,0.5,1.6,0.5,2.7,0.5h26.9v33h-26.9c-3.3,0-5.5,2.2-5.5,5.5c0,1.1,0,1.6,0.5,2.7
		c12.1,20.9,37.4,30.2,60.5,21.4c-0.5,2.7-1.1,5.5-1.1,8.8c0,0.5,0,1.1,0,1.1l11,44c5.5,15.9,14.8,30.8,27.5,42.9v33
		c0,15.4,12.1,27.5,27.5,27.5h77c15.4,0,27.5-12.1,27.5-27.5v-30.8c15.4-12.6,26.4-29.7,32.4-48.9v-0.5l8.2-47.8
		c4.9,1.6,9.3,2.2,14.3,2.2c17.6,0,34.1-9.3,42.9-24.7c1.6-2.7,0.5-6-2.2-7.7C2851.4,1463.2,2850.3,1463.2,2849.2,1463.2z
		 M2614.4,1396.1c5.5,2.2,12.1,0,14.3-5.5c1.1-2.7,1.1-6,0-8.8l-12.1-28l20.3-11.5l18.1,24.2c0.5,0.5,0.5,1.1,1.1,1.6l0.5,0.5
		c2.7,2.7,7.1,3.8,11,2.2c3.8-1.1,6.6-4.9,7.1-9.3l3.3-30.2h23.6l3.3,30.8c0.5,6,6,10.4,12.1,9.9c3.3-0.5,6-2.2,7.7-4.4l18.7-25.3
		l20.3,11.5l-12.6,28.6c-2.2,5.5,0,12.1,5.5,14.3c2.7,1.1,6,1.1,8.8,0l28-12.1l7.7,13.7c-8.2,1.6-15.9,4.9-22,10.4
		c-3.3-3.8-7.7-6-12.6-6h-11c-3.8,0-8.2,1.6-11,4.4c-2.7-2.2-5.5-3.8-9.3-3.8c-30.2-25.3-75.3-21.4-100.6,8.8
		c-3.3,3.8-6,8.2-8.8,13.2h-12.1c-7.1-13.7-19.8-23.6-35.2-26.4l8.2-13.7L2614.4,1396.1z M2750.7,1419.2c0-3.3,2.2-5.5,5.5-5.5h11
		c3.3,0,5.5,2.2,5.5,5.5v55c0,3.3-2.2,5.5-5.5,5.5h-11c-3.3,0-5.5-2.2-5.5-5.5V1419.2z M2712.2,1407.1c-2.7-2.7-7.1-4.4-11-4.4h-11
		c-3.8,0-8.2,1.6-11,4.4c-2.7-2.7-7.1-4.4-11-4.4h-3.3c16.5-7.7,36.3-7.1,52.2,1.1C2715.5,1404.4,2713.9,1405.5,2712.2,1407.1z
		 M2640.8,1424.7h-1.1c0.5-0.5,0.5-1.1,1.1-1.6V1424.7z M2651.8,1419.2c0-3.3,2.2-5.5,5.5-5.5h11c3.3,0,5.5,2.2,5.5,5.5v38.5h-22
		V1419.2z M2684.7,1419.2c0-3.3,2.2-5.5,5.5-5.5h11c3.3,0,5.5,2.2,5.5,5.5v39.6c-1.6-0.5-3.8-1.1-5.5-1.1h-16.5
		C2684.7,1457.7,2684.7,1419.2,2684.7,1419.2z M2717.7,1419.2c0-3.3,2.2-5.5,5.5-5.5h11c3.3,0,5.5,2.2,5.5,5.5v55
		c0,3.3-2.2,5.5-5.5,5.5h-11c-3.3,0-5.5-2.2-5.5-5.5V1419.2z M2542.3,1474.2h21.4c3.3,0,5.5-2.2,5.5-5.5v-44c0-3.3-2.2-5.5-5.5-5.5
		h-21.4c15.4-14.8,39.6-14.8,54.4,0.5c3.3,3.8,6,7.7,8.2,12.6c1.1,2.2,2.7,3.3,4.9,3.3h30.8v22H2610c-2.2,0-4.4,1.1-4.9,3.3
		c-1.1,2.2-2.2,4.4-3.3,6.6c-2.7,2.7-5.5,5.5-7.7,8.8C2578.6,1489,2556.6,1487.9,2542.3,1474.2z M2778.2,1539.6
		c-5.5,18.1-16.5,33.5-30.8,45.6c-1.1,1.1-1.6,2.7-1.6,4.4v33c0,9.3-7.1,16.5-16.5,16.5h-77c-9.3,0-16.5-7.1-16.5-16.5v-35.2
		c0-1.6-0.5-2.7-1.6-3.8c-6-6-20.9-22-25.8-39.6l-11-43.4c0-3.3,0.6-6,1.1-8.8c3.8-12.1,13.7-21.4,26.4-23.1h76.4
		c2.7,0,5.5,2.2,5.5,4.9v0.5c0,15.4-12.1,27.5-27.5,27.5h-38.5v11h17.6l1.6,1.1c11.5,7.1,21.4,13.2,24.7,28c2.2,8.2,2.2,16.5,0,24.7
		l10.4,2.7c2.2-9.9,2.2-20.3,0-30.2c-2.7-10.4-8.8-19.8-17.6-26.4h1.1c15.9,0,29.7-9.9,35.7-24.2c2.7,1.6,5.5,2.2,8.2,2.2h11
		c3.8,0,8.2-1.6,11-4.4c2.7,2.7,7.1,4.4,11,4.4h11c7.7,0,13.7-4.9,15.9-12.1c1.6,2.2,2.7,3.8,3.8,6L2778.2,1539.6z M2811.2,1485.2
		c-4.4,0-8.8-0.5-12.6-2.2c0-0.5-0.5-1.6-0.5-2.2c-3.3-6.6-8.2-12.6-14.3-17.6v-43.4c14.8-15.4,39-15.4,54.4-1.1l0,0h-21.4
		c-3.3,0-5.5,2.2-5.5,5.5v44c0,3.3,2.2,5.5,5.5,5.5h21.4C2831,1481.3,2821.7,1485.2,2811.2,1485.2z"/>
	<path d="M2706.7,1617.2v11c15.4,0,27.5-12.1,27.5-27.5h-11C2723.2,1610,2716.1,1617.2,2706.7,1617.2z"/>
</g>
<g>
	<g>
		<path d="M524.7,2145.2l-43.7-43.7c-15.6-15.6-42.1-9.4-48.3,10.9c-4.7,14-20.3,21.8-34.3,18.7c-31.2-7.8-73.3-48.3-81.1-81.1
			c-4.7-14,4.7-29.6,18.7-34.3c20.3-6.2,26.5-32.8,10.9-48.3l-43.7-43.7c-12.5-10.9-31.2-10.9-42.1,0l-29.6,29.6
			c-29.6,31.2,3.1,113.8,76.4,187.2s156,107.6,187.2,76.4l29.6-29.6C535.6,2174.9,535.6,2156.1,524.7,2145.2z"/>
	</g>
</g>
<g>
	<path d="M308.9,2547.9v89.4c0,4.4-3.6,8.1-8.1,8.1h-54.2c-4.5,0-8-3.6-8-8.1v-89.4c0-4.4,3.6-8.1,8-8.1h54.3
		C305.3,2539.9,308.9,2543.5,308.9,2547.9z"/>
	<g>
		<path d="M931.8,2498.1v214.4l-328.9,45.2c-4.7,0.6-8.2,4.7-8.2,9.4v9.5c0,2-1.6,3.5-3.5,3.5H481c-2,0-3.5-1.6-3.5-3.5v-8.7
			c0-4.8-3.6-8.9-8.4-9.4l-267.6-31.3c-2.5-0.3-4.3-2.4-4.3-4.9v-42c0-2.7,2.2-4.9,4.9-4.9h127.6c2.7,0,4.9-2.2,4.9-4.9v-136.4
			c0-7.8,6.4-14.2,14.2-14.2h75.3c7.8,0,14.2,6.3,14.2,14.2v131.5c0,2.7,2.2,4.9,4.9,4.9h450.5c2.7,0,4.9-2.2,4.9-4.9v-167.5
			c0-2.7,2.2-4.9,4.9-4.9H927C929.6,2493.2,931.8,2495.4,931.8,2498.1z"/>
		<path d="M887.1,2464.5v150.8c0,5.2-4.2,9.4-9.4,9.4H441.8v-32.2h400.9c5.2,0,9.4-4.2,9.4-9.4v-82.6c0-5.2-4.2-9.4-9.4-9.4H236.5
			c-5.2,0-9.4,4.2-9.4,9.4v82.6c0,5.2-0.2,9.4,5,9.4h2v32.2h-27.6c-5.2,0-9.4-4.2-9.4-9.4v-150.8c0-5.2,4.2-9.4,9.4-9.4h671.2
			C882.9,2455,887.1,2459.3,887.1,2464.5z"/>
		<rect x="312.2" y="2592.5" width="19.3" height="32.2"/>
	</g>
</g>
<g>
	<path d="M978.1,2055.4c0-8,0-15.4,0-23.8c8.1,0,15.9,0,24.6,0c0,7.4,0,15,0,23.8C995.1,2055.4,987.2,2055.4,978.1,2055.4z"/>
	<path d="M978.3,2107c0-8.6,0-16.2,0-24.4c8.2,0,15.9,0,24.3,0c0,8,0,15.9,0,24.4C994.6,2107,986.5,2107,978.3,2107z"/>
	<g>
		<rect x="1083.3" y="2031.4" width="23.5" height="23.5"/>
	</g>
	<g>
		<rect x="1030.7" y="2031.4" width="23.5" height="23.5"/>
	</g>
	<g>
		<rect x="1083.3" y="2083.1" width="23.5" height="23.5"/>
	</g>
	<g>
		<rect x="1030.7" y="2083.1" width="23.5" height="23.5"/>
	</g>
	<path d="M770.2,2031.9v75.1H952v-75.1H770.2z M926.2,2082.9H796V2056h130.3L926.2,2082.9L926.2,2082.9z"/>
	<path d="M1097,1978.9h-16.3v-26h18.3c15.2-1.6,28.6-7.3,39.9-18.9c15.8-16,20.8-35.4,18.2-57.5H719.7c-2.1,17.9,0.8,34,10.6,48.3
		c12.2,17.7,28.6,25.9,47.9,28h18v26h-16.6l-31.9,16.3l-28.3,13.5v150.1h24.2v52.4h104.6v-52.4h179.9v52.4h104.6v-52.4h24.6v-150.1
		l-20.1-9.1L1097,1978.9z M748.4,1902.3h381c-5.1,12.3-13.1,19.9-24.9,23.2c-4.6,1.3-9.7,1.6-14.5,1.6c-101.1,0.1-202.1,0.1-303.2,0
		C767.2,1927.2,755,1919.4,748.4,1902.3z M1055.3,1952.8v25H821.7v-25H1055.3z M821.5,2169.4c0,0.8,0,1.5,0,2.4v13.4H796
		c-3.9,0-7.7,0-11.6,0h-13.9l0,0c0,0,0,0-0.1,0c0-8.9,0-16.3,0-24.6c0,0,0,0,0.1,0v-0.1h50.9V2169.4z M1106,2185.2h-50.9v-24.7h50.9
		V2185.2z M744.9,2024.7l13.8-6.6l0.3-0.2l0.3-0.2l26.4-13.5h305.1l35,17.9l0.6,0.3l0.6,0.3l5.1,2.3v108.2h-387V2024.7z"/>
</g>
<g>
	<g>
		<g>
			<path d="M1614.1,1936.9h-270.5c-10.7,0-19.3,8.7-19.3,19.3v11l154.6,65.5l154.6-65.5v-11
				C1633.5,1945.5,1624.8,1936.9,1614.1,1936.9z"/>
		</g>
	</g>
	<g>
		<g>
			<path d="M1482.7,2052c-1.2,0.5-2.5,0.8-3.8,0.8s-2.6-0.3-3.8-0.8l-150.8-63.8v141.9c0,10.7,8.7,19.3,19.3,19.3h270.5
				c10.7,0,19.3-8.7,19.3-19.3v-141.9L1482.7,2052z"/>
		</g>
	</g>
</g>
<g>
	<path d="M2330.6,2133.8v-52.2c0-9.1-4-17-11-21.6v-171.5c0-5.5-4.9-9.5-10.4-9.5h-319.3c-5.5,0-10.3,4-10.3,9.5v61.5h-23
		c-9.5-0.1-18.3,5.2-22.6,13.7l-30.1,58.3l-30.1,13c-9.3,4-15.3,13.2-15.2,23.4v75.6c-0.2,13.7,10.8,25,24.5,25.1c0.2,0,0.4,0,0.6,0
		h12.8c1.8,28.3,26.3,49.8,54.6,48c25.8-1.7,46.3-22.2,48-48h186.2c1.8,28.3,26.3,49.8,54.6,48c25.8-1.7,46.3-22.2,48-48h17.7
		c13.7,0.1,24.9-10.9,25-24.6C2330.6,2134.2,2330.6,2134,2330.6,2133.8z M1947.7,2187.4c-17.3,0-31.4-14.1-31.4-31.4
		c0-1.7,0.1-3.4,0.4-5.2c2.9-17.1,19.1-28.7,36.2-25.8c13.2,2.2,23.6,12.6,25.8,25.8c0.3,1.7,0.4,3.4,0.4,5.2
		C1979.1,2173.4,1965.1,2187.4,1947.7,2187.4z M2009.6,2139h-13.2c-9.2-26.9-38.5-41.2-65.4-32c-15,5.2-26.8,16.9-32,32h-15.4
		c-2.7,0.1-4.9-1.9-5-4.6c0-0.2,0-0.4,0-0.6v-75.6c-0.1-2.1,1.2-4.1,3.1-4.9l31.5-13.3h96.4V2139z M2009.6,2020h-82.1l24.2-47
		c0.9-1.8,2.8-3,4.8-3h47.7c2.8-0.1,5.2,2.1,5.3,5c0,0.1,0,0.2,0,0.2L2009.6,2020L2009.6,2020z M2004.6,1950c-0.1,0-0.2,0-0.3,0
		h-4.7v-51h300v157h-270v-80.8C2029.7,1961.3,2018.5,1950,2004.6,1950z M2236.5,2187.4c-17.3,0-31.4-14.1-31.4-31.4
		c0-1.7,0.1-3.4,0.4-5.2c2.5-15.2,15.6-26.3,31-26.3c15.5,0.1,28.6,11.3,31.1,26.6c0.2,1.6,0.4,3.2,0.4,4.8
		C2267.9,2173.4,2253.8,2187.4,2236.5,2187.4z M2310.6,2133.8c0.2,2.6-1.8,4.9-4.5,5.1c-0.2,0-0.4,0-0.6,0h-20.4
		c-9.2-26.9-38.5-41.2-65.4-32c-15,5.2-26.8,16.9-32,32h-158.1v-63h276c3,0,5,2.7,5,5.7V2133.8z"/>
</g>
</svg>
